<svg width="23" height="9" viewBox="0 0 23 9" fill="none" xmlns="http://www.w3.org/2000/svg">
<path d="M2.52734 7.06762C3.64891 7.06762 4.70469 7.06011 5.7524 7.06762C6.33945 7.075 6.65896 7.31998 6.71846 7.78755C6.78534 8.37399 6.4434 8.7675 5.80438 8.77487C4.60074 8.78977 3.40421 8.78239 2.20044 8.78239C1.85111 8.78239 1.50931 8.79715 1.16012 8.77487C0.729131 8.7526 0.305533 8.66352 0.0974949 8.21822C-0.110543 7.77293 0.0379975 7.37191 0.320305 7.00818C1.46472 5.55316 2.61652 4.09089 3.76832 2.63586C3.8352 2.54678 3.90208 2.45824 3.96897 2.37626C3.8947 2.25001 3.79116 2.30944 3.70143 2.30193C2.89896 2.29455 2.08897 2.30193 1.28636 2.29455C1.10153 2.29355 0.917285 2.27363 0.736517 2.23511C0.636489 2.21222 0.541954 2.16987 0.458313 2.11048C0.374671 2.05109 0.303562 1.97581 0.249047 1.88896C0.194533 1.80211 0.15768 1.70538 0.140594 1.6043C0.123509 1.50322 0.126524 1.39976 0.14947 1.29985C0.216354 1.01783 0.439301 0.7876 0.721608 0.720786C0.901523 0.6762 1.08622 0.653762 1.27159 0.653971C2.59422 0.646593 3.92438 0.646593 5.24701 0.653971C5.48258 0.647763 5.71782 0.675371 5.94553 0.735952C6.45161 0.906746 6.66635 1.37431 6.46528 1.86428C6.28747 2.28785 6.00462 2.65117 5.72231 3.01489C4.74873 4.25462 3.77525 5.48689 2.80185 6.71169C2.71978 6.80815 2.64579 6.90462 2.52693 7.06803L2.52734 7.06762Z" fill="white"/>
<path d="M11.1473 3.16253C11.3251 2.9323 11.5114 2.7171 11.816 2.65766C12.4031 2.53892 12.9531 2.91727 12.9604 3.51136C12.9827 4.99603 12.9754 6.48071 12.9604 7.96566C12.9607 8.15292 12.9009 8.33535 12.79 8.48628C12.679 8.63722 12.5226 8.74875 12.3437 8.8046C11.9721 8.9456 11.5485 8.83425 11.3034 8.51507C11.177 8.35917 11.1256 8.32952 10.9467 8.47052C10.2704 9.0198 9.50505 9.11626 8.68014 8.84914C7.35751 8.41847 6.81505 7.38715 6.66638 6.13215C6.51031 4.77373 6.96359 3.61575 8.18228 2.90306C9.19292 2.30186 10.2185 2.35378 11.1473 3.16266V3.16253ZM8.5167 5.872C8.5316 6.19856 8.63555 6.51036 8.82882 6.7701C9.23012 7.30462 9.99553 7.41598 10.5385 7.01509C10.6311 6.94495 10.7136 6.86252 10.7838 6.7701C11.1999 6.20594 11.1999 5.27805 10.7838 4.71388C10.6829 4.57261 10.5505 4.45678 10.3969 4.37561C10.2434 4.29445 10.073 4.25017 9.89937 4.24632C9.08145 4.19426 8.50945 4.82524 8.5167 5.872ZM16.297 5.91654C16.2373 4.00871 17.4934 2.58347 19.2767 2.53155C21.1716 2.47211 22.5538 3.74145 22.6132 5.59723C22.6727 7.47541 21.5209 8.80419 19.7449 8.98222C17.8054 9.17529 16.2672 7.77232 16.297 5.91654ZM18.1621 5.73892C18.1474 6.11151 18.2601 6.478 18.4816 6.77816C18.5786 6.90571 18.7 7.01275 18.8388 7.09309C18.9775 7.17343 19.1309 7.22546 19.2899 7.24618C19.4489 7.26689 19.6105 7.25588 19.7652 7.21377C19.9199 7.17166 20.0648 7.0993 20.1913 7.00088C20.2734 6.94144 20.34 6.86725 20.4067 6.79292C20.8378 6.22875 20.8378 5.27859 20.4142 4.71443C20.2062 4.43241 19.8792 4.25424 19.53 4.24686C18.7267 4.20177 18.1621 4.81048 18.1621 5.73837V5.73892ZM15.6431 4.43979C15.6431 5.59039 15.6504 6.741 15.6431 7.8916C15.647 8.14505 15.5511 8.3899 15.3759 8.57325C15.2007 8.75661 14.9603 8.86376 14.7067 8.87155C14.6142 8.87266 14.5219 8.86266 14.4318 8.84176C14.0603 8.7453 13.7778 8.35179 13.7778 7.88422V1.98214C13.7778 1.63331 13.7704 1.29186 13.7778 0.94289C13.7852 0.371345 14.1494 0.000107983 14.6993 0.000107983C15.264 -0.00727031 15.6431 0.363968 15.6431 0.957783C15.6504 2.11577 15.6431 3.28126 15.6431 4.43924V4.43979Z" fill="white"/>
</svg>
