<svg width="80" height="82" viewBox="0 0 80 82" fill="none" xmlns="http://www.w3.org/2000/svg">
<path fill-rule="evenodd" clip-rule="evenodd" d="M1 40C1 18.4614 18.4614 1 40 1C61.5386 1 79 18.4614 79 40C79 61.5386 61.5386 79 40 79C18.4614 79 1 61.5386 1 40Z" fill="#D0D0D0" stroke="#D0D0D0" stroke-width="2" stroke-linecap="round" stroke-linejoin="round"/>
<path d="M19.765 58.8166L34.4819 49.5659H45.5197L60.2367 58.8166L63.9159 63.4419L65.7555 70.3799L40.0008 81.9433L14.2461 70.3799L16.0857 63.4419L19.765 58.8166Z" fill="white"/>
<path fill-rule="evenodd" clip-rule="evenodd" d="M39.9982 54.1817V54.1817C32.1663 54.1817 25.8164 47.8318 25.8164 39.9999V32.909C25.8164 25.0771 32.1663 18.7272 39.9982 18.7272C47.8301 18.7272 54.18 25.0771 54.18 32.909V39.9999C54.18 47.8318 47.8301 54.1817 39.9982 54.1817V54.1817Z" fill="white" stroke="#D0D0D0" stroke-width="2" stroke-linecap="round" stroke-linejoin="round"/>
<path d="M64.8207 69.9883V67.4463C64.8207 63.6278 62.7749 60.1036 59.4599 58.2103L47.9727 51.6442" stroke="#D0D0D0" stroke-width="2" stroke-linecap="round" stroke-linejoin="round"/>
<path d="M31.9607 51.686L20.5443 58.2097C17.2293 60.1029 15.1836 63.6271 15.1836 67.4456V69.9877" stroke="#D0D0D0" stroke-width="2" stroke-linecap="round" stroke-linejoin="round"/>
<path fill-rule="evenodd" clip-rule="evenodd" d="M1 40C1 18.4614 18.4614 1 40 1C61.5386 1 79 18.4614 79 40C79 61.5386 61.5386 79 40 79C18.4614 79 1 61.5386 1 40V40Z" stroke="#D0D0D0" stroke-width="2" stroke-linecap="round" stroke-linejoin="round"/>
</svg>
