<svg width="66" height="90" viewBox="0 0 66 90" fill="none" xmlns="http://www.w3.org/2000/svg">
<path d="M47.2283 43.433C47.2284 44.3125 47.1417 45.1899 46.9692 46.0531C46.5036 48.372 45.4444 50.5378 43.8906 52.3482C42.3369 54.1586 40.3391 55.5545 38.0839 56.4057H38.0057L37.9434 56.4702C37.3445 56.8083 33.7232 59.0807 33.4837 64.6196H32.5634C32.336 59.4404 29.1669 57.1189 28.2063 56.5311V56.5036L28.0413 56.4332L27.9888 56.4021H27.9692H27.9607C25.5823 55.5148 23.4916 54.0191 21.907 52.0715C20.3224 50.1239 19.3022 47.7958 18.9531 45.3308C18.604 42.8658 18.9387 40.3544 19.9224 38.0592C20.906 35.7639 22.5025 33.7692 24.5447 32.2836C26.4442 30.9008 28.6694 30.0079 31.0149 29.6874C31.2987 29.7164 31.5856 29.6908 31.8594 29.6121C32.3825 29.4651 33.0999 29.5046 33.7611 29.5356C34.0666 29.5476 34.3624 29.5476 34.6582 29.5416L34.6264 29.63L34.9931 29.6814C41.9656 30.6372 47.2234 36.5464 47.2234 43.4354" fill="#FF1C24"/>
<path d="M35.1343 55.1979C32.2625 55.1978 29.4581 54.3464 27.0915 52.756C24.7249 51.1656 22.9073 48.911 21.8786 46.2898C21.8872 47.1942 21.7149 48.0903 21.6916 49.0067C21.67 49.8061 21.6981 50.6061 21.776 51.4022C21.8652 51.5216 21.9532 51.6411 22.0436 51.7606C23.5495 53.7649 25.4983 55.4115 27.7451 56.5778C29.5429 57.5074 31.2014 58.4393 32.3673 60.1155C32.4279 60.1986 32.4665 60.2951 32.4798 60.3963C32.8435 60.8564 33.129 61.3708 33.3255 61.9196C33.9183 60.266 34.9425 58.6495 36.0815 57.6424C37.4125 56.4679 38.9866 55.8395 40.6415 55.3855C40.8359 54.8991 41.0012 54.402 41.1365 53.8968C39.2573 54.7548 37.2084 55.199 35.1343 55.1979Z" fill="#E30000"/>
<path d="M48.0063 43.6921C48.0072 44.5716 47.9204 45.4491 47.7472 46.3122C47.2024 47.4389 46.4939 48.4827 45.6438 49.4114C46.8366 46.5652 46.9616 43.3984 45.9967 40.4708C45.0318 37.5432 43.0391 35.0434 40.3709 33.4133C37.7027 31.7832 34.5309 31.1278 31.4162 31.5629C28.3015 31.9981 25.4444 33.4957 23.3501 35.7912C23.842 34.6187 24.5084 33.5236 25.3276 32.5414C27.2269 31.1584 29.4522 30.2655 31.7978 29.9452C32.0817 29.9739 32.3686 29.9479 32.6423 29.8688C33.1666 29.723 33.8828 29.7624 34.544 29.7923C34.8496 29.8055 35.1453 29.8055 35.4411 29.7923L35.4105 29.8807L35.7772 29.9333C42.7497 30.8891 48.0075 36.7972 48.0075 43.6861" fill="#FFDEDE"/>
<path d="M47.437 18.8247C46.5607 20.4567 44.9744 21.6574 43.2205 22.3313C41.4667 23.0051 39.554 23.1891 37.6645 23.1365C37.645 21.3147 38.2571 19.5402 39.4012 18.102C40.5452 16.6638 42.1538 15.6467 43.9648 15.2165C44.67 15.048 45.4156 14.9776 46.1183 15.1484C46.8211 15.3193 47.4786 15.7768 47.7536 16.4328C48.0762 17.2022 47.8318 18.0899 47.437 18.8223" fill="#4A7132"/>
<path d="M47.3274 17.4435C47.6182 16.7266 47.3359 15.8222 46.7713 15.2822C46.2066 14.7421 45.3853 14.5056 44.5958 14.5295C43.8063 14.5534 43.0412 14.8186 42.336 15.1675C41.0661 15.7848 39.9764 16.7058 39.1681 17.8449C38.3634 18.9903 37.9369 20.3492 37.9459 21.7386C37.9521 22.1078 38.0071 22.508 38.2723 22.7697C38.3471 22.6946 38.3939 22.5971 38.4052 22.4929C38.4165 22.3887 38.3917 22.2838 38.3346 22.195C39.0581 20.8449 39.7914 19.4805 40.8254 18.3407C41.8593 17.2009 43.2429 16.2893 44.7901 16.1137C45.3091 16.0374 45.8395 16.0981 46.3264 16.2893C46.8031 16.4972 47.2284 16.9441 47.3298 17.4435" fill="#D7FFB5"/>
<path d="M38.7908 15.2187C39.6573 13.92 40.8489 12.8674 42.0283 11.828C43.2077 10.7885 44.3932 9.71684 45.2243 8.39783C46.0554 7.07882 46.5198 5.45634 46.1141 3.95692C45.9362 3.33448 45.6268 2.75543 45.2057 2.2572C44.7847 1.75896 44.2614 1.35261 43.6697 1.06442C42.4697 0.495856 41.0957 0.386338 39.8174 0.757364C37.6346 1.38222 36.0152 3.26635 35.1658 5.32252C34.3164 7.3787 34.1245 9.64037 33.9436 11.8566C33.8621 12.8124 33.7831 13.7683 33.7065 14.7241C33.6136 15.84 33.5354 17.0311 34.0878 18.012C34.3237 18.4302 34.6989 18.8065 35.1744 18.9069C35.8808 19.055 36.564 18.5664 37.0247 18.0216C37.7409 17.1757 38.1809 16.1422 38.7957 15.2223" fill="#76B345"/>
<path d="M43.4595 10.5856C44.282 9.80187 45.0874 8.98585 45.6875 8.02885C46.2876 7.07185 46.6762 5.95476 46.5944 4.83527C46.4807 3.27253 45.4162 1.84121 43.9862 1.13153C42.5563 0.421842 40.8086 0.421842 39.3212 0.99652C37.8338 1.5712 36.5921 2.69068 35.7646 4.03239C36.9062 2.81494 38.3948 1.76236 40.0826 1.68948C41.9061 1.60943 43.7259 2.84481 44.2209 4.55689C44.6816 6.15308 44.0412 7.87831 43.0562 9.22839C42.0711 10.5785 40.7585 11.6621 39.6341 12.9023C38.5097 14.1424 37.736 15.8808 37.6639 17.5379C39.0547 14.8867 41.2706 12.6645 43.4595 10.5856Z" fill="#D7FFB5"/>
<path d="M24.0384 15.6669C24.5908 15.9119 25.1982 16.0875 25.6333 16.5033C26.3275 17.1652 26.3776 18.2177 26.666 19.1234C26.8981 19.8334 27.2929 20.4822 27.8202 21.0205C28.3476 21.5588 28.9937 21.9724 29.7093 22.2297C30.038 22.3492 30.4218 22.4209 30.7224 22.2465C31.0231 22.072 31.1368 21.7136 31.2272 21.3862C31.5389 20.2715 31.8517 19.1449 31.9043 17.9907C31.9568 16.8366 31.7283 15.6335 31.0426 14.692C30.4707 13.9071 29.6127 13.3408 29.1116 12.5104C28.4028 11.3383 28.4736 9.74693 27.4825 8.78873C27.0694 8.38849 26.5169 8.15432 25.9657 7.97033C25.0234 7.6573 24.0102 7.46136 23.0325 7.62504C22.0548 7.78872 21.1015 8.3634 20.6896 9.24274C20.3889 9.88791 20.395 10.6334 20.5332 11.33C20.7293 12.2707 21.1487 13.1532 21.7575 13.9065C22.3663 14.6598 23.1476 15.2628 24.0384 15.6669Z" fill="#599730"/>
<path d="M30.4459 21.7552C30.5913 20.5413 30.7368 19.3191 30.6353 18.1016C30.5339 16.8841 30.1648 15.6571 29.3826 14.7049C28.9805 14.2163 28.4782 13.8076 28.1335 13.2784C27.5787 12.4289 27.4931 11.3668 27.0336 10.4635C26.7699 9.94907 26.3893 9.50039 25.921 9.15181C25.4526 8.80322 24.909 8.56398 24.3315 8.45237C23.754 8.34076 23.1581 8.35975 22.5893 8.50788C22.0205 8.656 21.4939 8.92935 21.0498 9.30701C21.1799 8.82809 21.4454 8.39472 21.8159 8.0566C22.1864 7.71849 22.6469 7.48932 23.1446 7.3954C24.148 7.20424 25.1954 7.4623 26.1133 7.90317C26.9688 8.31655 27.7742 8.91752 28.2203 9.74668C28.8632 10.9414 28.7202 12.4862 29.5965 13.5257C29.9472 13.9427 30.4312 14.2354 30.7918 14.6428C31.211 15.1207 31.4432 15.7181 31.5947 16.3238C32.0034 17.9536 31.8751 19.668 31.2281 21.2223C31.1642 21.4202 31.0407 21.5947 30.8737 21.7229C30.6952 21.834 30.5473 21.9332 30.4508 21.7504" fill="#D7FFB5"/>
<path d="M20.5426 49.0625C19.9813 47.8183 19.6475 46.4875 19.5563 45.1306C19.4548 43.8343 19.2898 41.2512 20.633 38.3205C21.6213 36.2341 23.1404 34.4303 25.0451 33.0815C26.5849 32.0008 28.3301 31.2319 30.1782 30.8198C32.4734 30.3048 34.2529 30.5079 35.8173 30.7003C36.7413 30.8102 40.9627 31.318 41.0837 32.5307C41.1387 33.0755 40.3663 33.7935 39.7393 34.1197C39.0475 34.4781 38.5721 34.3455 38.3949 34.7075C38.1505 35.2045 38.8984 35.7673 38.6063 36.4339C38.5892 36.4734 38.423 36.8437 38.1822 36.8485C37.6701 36.8617 37.5394 35.2081 36.9808 35.1567C36.492 35.1101 36.4101 36.3515 35.1769 37.2285C34.4864 37.7219 34.2224 37.5582 33.7103 38.0445C33.0821 38.6418 33.3583 39.2225 32.8548 40.0983C31.8562 41.8366 30.7392 41.7709 30.5717 42.8462C30.408 43.888 31.3258 44.9012 31.8917 45.5344C33.0222 46.7961 33.9193 46.8008 34.0733 47.6981C34.2187 48.55 33.5514 49.3588 33.4622 49.4663C33.1053 49.8988 32.8865 49.8594 32.0261 50.4221C31.5373 50.7435 31.2598 50.8499 31.2012 51.0422C31.0875 51.4174 31.4896 51.6826 31.3613 51.9729C31.239 52.2382 30.7624 52.3493 30.3835 52.3098C29.5133 52.2202 28.8191 51.3158 28.2105 50.5177C27.9795 50.2178 27.696 49.8009 27.1826 49.5978C27.0604 49.5488 26.9517 49.5213 26.6938 49.4102C26.3968 49.2835 26.2685 49.2095 25.9226 49.0386C25.6855 48.9191 25.5058 48.8403 25.3922 48.7865C24.7285 48.4747 24.7542 48.5105 24.643 48.4448C23.9805 48.0517 24.104 47.3982 23.6102 47.2429C23.4699 47.2075 23.3227 47.2065 23.1819 47.2398C23.041 47.2732 22.9107 47.3399 22.8024 47.4341C22.476 47.7256 22.4834 48.1915 22.465 49.6061C22.4443 51.2071 22.4284 51.3863 22.322 51.4329C21.9896 51.5775 21.106 50.2752 20.5462 49.0625" fill="#FFAAAF"/>
<path d="M20.5426 49.0625C19.9813 47.8183 19.6475 46.4875 19.5563 45.1306C19.4548 43.8343 19.2898 41.2512 20.633 38.3205C21.6213 36.2341 23.1404 34.4303 25.0451 33.0815C26.5849 32.0008 28.3301 31.2319 30.1782 30.8198C32.4734 30.3048 34.2529 30.5079 35.8173 30.7003C36.7413 30.8102 40.9627 31.318 41.0837 32.5307C41.1387 33.0755 40.3663 33.7935 39.7393 34.1197C39.0475 34.4781 38.5721 34.3455 38.3949 34.7075C38.1505 35.2045 38.8984 35.7673 38.6063 36.4339C38.5892 36.4734 38.423 36.8437 38.1822 36.8485C37.6701 36.8617 37.5394 35.2081 36.9808 35.1567C36.492 35.1101 36.4101 36.3515 35.1769 37.2285C34.4864 37.7219 34.2224 37.5582 33.7103 38.0445C33.0821 38.6418 33.3583 39.2225 32.8548 40.0983C31.8562 41.8366 30.7392 41.7709 30.5717 42.8462C30.408 43.888 31.3258 44.9012 31.8917 45.5344C33.0222 46.7961 33.9193 46.8008 34.0733 47.6981C34.2187 48.55 33.5514 49.3588 33.4622 49.4663C33.1053 49.8988 32.8865 49.8594 32.0261 50.4221C31.5373 50.7435 31.2598 50.8499 31.2012 51.0422C31.0875 51.4174 31.4896 51.6826 31.3613 51.9729C31.239 52.2382 30.7624 52.3493 30.3835 52.3098C29.5133 52.2202 28.8191 51.3158 28.2105 50.5177C27.9795 50.2178 27.696 49.8009 27.1826 49.5978C27.0604 49.5488 26.9517 49.5213 26.6938 49.4102C26.3968 49.2835 26.2685 49.2095 25.9226 49.0386C25.6855 48.9191 25.5058 48.8403 25.3922 48.7865C24.7285 48.4747 24.7542 48.5105 24.643 48.4448C23.9805 48.0517 24.104 47.3982 23.6102 47.2429C23.4699 47.2075 23.3227 47.2065 23.1819 47.2398C23.041 47.2732 22.9107 47.3399 22.8024 47.4341C22.476 47.7256 22.4834 48.1915 22.465 49.6061C22.4443 51.2071 22.4284 51.3863 22.322 51.4329C21.9859 51.5775 21.1023 50.2752 20.5426 49.0625Z" stroke="black" stroke-miterlimit="10"/>
<path d="M40.3224 33.3431C40.4518 33.2195 40.5436 33.0631 40.5876 32.8915C40.6176 32.7219 40.5994 32.5475 40.535 32.3873C39.4624 31.4734 38.2107 30.7824 36.8563 30.3562C36.216 30.1557 35.5568 30.018 34.8886 29.9452L34.5219 29.8927L34.5537 29.8043C34.2567 29.8102 33.9597 29.8102 33.6529 29.7971C32.9905 29.7672 32.2719 29.7278 31.7463 29.8747C31.4718 29.9539 31.1841 29.9798 30.8994 29.9512C28.5456 30.2734 26.3131 31.1709 24.4084 32.5606C23.5882 33.5506 22.9214 34.6532 22.4297 35.833C24.9217 33.0659 27.4052 32.2762 28.4953 32.0193C29.8691 31.6908 31.3711 31.6406 32.1619 31.6155C33.9951 31.5546 34.9179 31.5247 36.0313 31.8222C38.1298 32.3837 39.8689 33.7625 40.3248 33.3467" fill="#FFDEDE"/>
<path d="M27.8676 51.8116C28.0889 51.8582 28.1573 52.5715 27.8921 52.648C27.6599 52.7137 27.1356 52.3003 27.237 52.1091C27.2614 52.0637 27.3592 52.0171 27.5645 51.9228C27.7381 51.8427 27.8249 51.8033 27.8676 51.8116Z" fill="#FFA3A6"/>
<path d="M27.8676 51.8117C28.0889 51.8583 28.1573 52.5715 27.8921 52.648C27.6599 52.7137 27.1356 52.3003 27.237 52.1092C27.2614 52.0638 27.3592 52.0172 27.5645 51.9228C27.7381 51.8427 27.8249 51.8021 27.8676 51.8117Z" stroke="black"/>
<path d="M33.3748 47.1223C32.8395 45.8607 31.8838 46.1164 30.5125 44.5524C29.7364 43.6659 29.6704 43.1988 28.9347 42.7113C28.7091 42.5777 28.5266 42.3848 28.4079 42.1545C28.2356 41.7961 28.2038 41.2179 28.5008 40.9682C28.8577 40.6683 29.3844 41.0936 29.7975 40.7698C29.916 40.6717 30.0035 40.5426 30.0496 40.3977C30.0957 40.2527 30.0986 40.0979 30.0578 39.9514C29.9356 39.6085 29.5042 39.6468 28.667 39.1987C28.2588 38.9908 27.9095 38.6875 27.6502 38.3158C27.4595 38.047 27.2554 37.7614 27.2969 37.3731C27.2969 37.3504 27.3642 36.8116 27.7797 36.593C28.2515 36.3456 28.5778 36.8247 29.1571 36.667C29.756 36.5045 29.6863 35.9155 30.4453 35.5918C30.7863 35.4503 31.1612 35.406 31.5269 35.4639C31.6736 35.4842 32.5046 35.5989 32.6745 36.0804C32.7821 36.3803 32.5327 36.5261 32.6513 36.8749C32.754 37.1796 33.0412 37.3469 33.2624 37.4807C33.8576 37.8283 34.1485 37.6527 34.2609 37.8546C34.5933 38.452 32.5621 40.7531 32.5327 40.8152C32.5327 40.8152 32.5327 40.8296 32.5169 40.8475L32.4949 40.8905C32.3189 41.2167 31.7322 41.5715 31.7322 41.5715C31.2592 41.8583 31.0234 42.0016 30.9268 42.1772C30.6946 42.6038 30.9427 43.1546 31.1004 43.501C31.2754 43.875 31.529 44.2088 31.8447 44.4807C32.1734 44.7663 32.4692 44.8953 32.9825 45.1319C33.8649 45.5393 34.0825 45.4473 34.5457 45.7914C34.8723 46.0345 35.1371 46.3481 35.3193 46.7078C35.378 46.8272 35.8448 47.7938 35.411 48.7878C35.1555 49.3745 34.7009 49.7078 34.2389 50.0471C33.9621 50.2471 33.668 50.4234 33.3602 50.574C32.6464 50.9133 32.4228 50.8213 32.2296 51.0818C31.9852 51.4151 32.2688 51.6696 32.0451 52.3315C31.9408 52.6399 31.7646 52.9205 31.5306 53.1511C31.4792 53.2001 30.8718 53.7819 30.5626 53.6123C30.3035 53.4701 30.5626 53.0149 30.2253 52.6075C30.0004 52.3291 29.7926 52.4247 29.4235 52.077C29.2695 51.9312 28.9664 51.6361 29.0202 51.3279C29.0813 50.9695 29.5959 50.758 29.9271 50.6899C30.5822 50.5561 30.9598 50.9049 31.1994 50.6899C31.4096 50.5047 31.1468 50.212 31.2996 49.7257C31.4731 49.1642 32.0695 48.7245 32.6183 48.5859C33.0522 48.476 33.2477 48.6062 33.4249 48.439C33.772 48.1104 33.4115 47.237 33.3638 47.1247" fill="#FFAAAF"/>
<path d="M33.2082 47.1928C33.0017 46.6504 32.5739 46.3254 32.0716 46.0363C31.5471 45.7322 31.0663 45.3614 30.6417 44.9335C30.433 44.7172 30.2371 44.4894 30.055 44.2513C29.6994 43.7985 29.4439 43.274 28.9648 42.9371C28.5456 42.6909 28.1839 42.3134 28.1215 41.8188C28.0409 41.4054 28.1484 40.8271 28.641 40.7005C28.9856 40.5965 29.3743 40.8295 29.6627 40.6336C29.7487 40.5642 29.8144 40.4739 29.853 40.3717C29.8916 40.2695 29.9019 40.1591 29.8827 40.0517C29.8546 39.9454 29.8106 39.9143 29.7079 39.8606C29.6053 39.8068 29.4525 39.7578 29.3132 39.7052C29.0242 39.6001 28.7443 39.4726 28.476 39.3241C28.059 39.0936 27.7038 38.7697 27.4396 38.3791C27.2489 38.1222 27.0668 37.7996 27.0729 37.4591C27.0876 36.9191 27.4469 36.3289 28.0433 36.299C28.454 36.2847 28.8499 36.618 29.23 36.391C29.4513 36.2631 29.5613 35.9884 29.758 35.7936C29.873 35.666 30.0084 35.5574 30.1589 35.4722C30.6005 35.2283 31.1157 35.1437 31.6145 35.2333C32.1266 35.3181 32.7279 35.4806 32.9284 36.0266C32.9635 36.1338 32.9723 36.2476 32.954 36.3587C32.9296 36.514 32.8734 36.5977 32.8844 36.7172C32.9222 36.9943 33.2363 37.1592 33.4686 37.2894C33.6366 37.3811 33.8214 37.44 34.0124 37.4627C34.1156 37.4725 34.2166 37.4979 34.3119 37.538C34.9938 37.9525 34.2031 39.0326 33.9195 39.4878C33.5713 39.9929 33.1972 40.4806 32.7988 40.949C32.6301 41.3194 32.1877 41.6407 31.8211 41.8666C31.6157 42.0075 31.2784 42.1545 31.1831 42.3552C31.0609 42.6862 31.2356 43.0374 31.386 43.3827C31.5973 43.8286 31.9317 44.208 32.3515 44.4783C32.9626 44.8451 33.6702 45.0816 34.3546 45.3278C35.7161 45.9849 36.3174 47.7902 35.5939 49.1044C35.3451 49.5164 35.0067 49.87 34.6027 50.1402C34.1126 50.522 33.5613 50.822 32.9711 51.0279C32.7071 51.1295 32.3979 51.1152 32.4089 51.4342C32.4538 51.7983 32.4081 52.1676 32.2758 52.5108C32.1434 52.854 31.9283 53.1609 31.6487 53.4055C31.3603 53.6337 31.1452 53.8511 30.7174 53.8942C30.6056 53.8969 30.4959 53.8632 30.4059 53.7983C30.3158 53.7334 30.2504 53.641 30.22 53.5357C30.1687 53.3505 30.1943 53.12 30.154 52.985C30.0966 52.7388 29.9304 52.6337 29.6969 52.5429C29.1824 52.2789 28.5102 51.605 28.9196 51.0112C29.3022 50.5393 29.9817 50.3768 30.5659 50.47C30.7235 50.4951 30.8812 50.5417 30.9826 50.5488C31.0474 50.5488 31.0511 50.5488 31.0731 50.5273C31.1 50.4138 31.0438 50.2418 31.0499 50.1032C31.0413 49.0972 32.118 48.3302 33.0848 48.3493C33.185 48.3433 33.2339 48.3565 33.2901 48.3194C33.3327 48.2727 33.3643 48.2176 33.3829 48.1578C33.4015 48.0979 33.4065 48.0349 33.3977 47.9729C33.3794 47.7044 33.3154 47.4407 33.2082 47.1928ZM33.5394 47.0578C33.735 47.5357 34.0198 48.4222 33.3647 48.6934C33.1202 48.7567 32.9186 48.6934 32.6912 48.7699C32.0203 48.9443 31.3346 49.5644 31.4911 50.2896C31.5644 50.6098 31.43 50.9527 31.0352 50.973C30.8533 50.9616 30.6726 50.9356 30.495 50.8953C30.3052 50.8658 30.1113 50.8738 29.9247 50.9187C29.7381 50.9637 29.5626 51.0447 29.4085 51.157C29.3333 51.2076 29.2801 51.2839 29.2594 51.3708C29.2562 51.4632 29.2865 51.5538 29.3449 51.6265C29.4877 51.8322 29.6805 52.0001 29.9059 52.1152C30.495 52.3111 30.6893 52.7818 30.693 53.3338C30.6962 53.3571 30.7007 53.3803 30.7064 53.4031C30.6979 53.3912 30.6869 53.3912 30.7064 53.3936C30.8059 53.3737 30.8997 53.3329 30.9814 53.2741C31.2036 53.1371 31.3954 52.9579 31.5455 52.7471C31.6956 52.5364 31.801 52.2983 31.8553 52.0471C31.9237 51.7472 31.7991 51.4497 31.9029 51.1426C31.9378 51.0376 31.9948 50.9408 32.0701 50.8585C32.1455 50.7762 32.2375 50.7102 32.3405 50.6647C32.6693 50.5453 32.8807 50.4987 33.1716 50.3589C33.5538 50.1761 33.9141 49.9525 34.2459 49.6922C34.5673 49.4533 34.8863 49.1749 35.0708 48.832C35.567 47.9323 35.2456 46.6814 34.4145 46.0566C34.2069 45.8991 33.9673 45.7867 33.7118 45.7268C33.121 45.5379 32.5536 45.285 32.0203 44.9729C31.4699 44.6178 31.0415 44.1091 30.7908 43.5129C30.6416 43.2146 30.5584 42.889 30.5463 42.5571C30.5194 41.7758 31.342 41.5356 31.8516 41.1473C32.0351 41.0273 32.1857 40.8653 32.2904 40.6754C32.3081 40.6454 32.3286 40.617 32.3515 40.5906C32.9015 39.9191 33.4918 39.2106 33.8829 38.4603C33.9676 38.3137 34.0177 38.1504 34.0295 37.9824C34.0382 37.995 34.05 38.0053 34.0638 38.0123C34.0199 38.0012 33.9754 37.9928 33.9305 37.9872C33.5993 37.9371 33.2839 37.8146 33.0078 37.6288C32.7666 37.4965 32.571 37.2974 32.4456 37.0565C32.3563 36.8698 32.3368 36.6584 32.3906 36.4591C32.4138 36.3719 32.4358 36.3086 32.4419 36.2679C32.4664 36.029 32.2219 35.9095 31.9335 35.8032C31.133 35.5403 30.3129 35.6753 29.8558 36.4292C29.7527 36.5804 29.6131 36.7046 29.4495 36.7908C29.2859 36.877 29.1031 36.9227 28.9172 36.9238C28.5334 36.9238 28.2352 36.7255 28.0616 36.7422C27.6082 36.7865 27.4041 37.4304 27.5899 37.7972C27.9468 38.5619 28.6666 39.0529 29.461 39.3361C29.6798 39.4293 29.9438 39.489 30.1271 39.6861C30.44 40.0744 30.2665 40.6527 29.8888 40.9323C29.5979 41.1545 29.2019 41.0637 28.9013 41.035C28.3256 40.9896 28.4124 41.7865 28.5896 42.1222C28.7118 42.3612 28.9477 42.5153 29.1714 42.6706C29.6725 43.0291 29.956 43.5894 30.319 44.0542C30.662 44.5142 31.067 44.9269 31.5228 45.2812C31.9971 45.6503 32.547 45.8702 33.0066 46.2824C33.2365 46.5016 33.4179 46.7647 33.5394 47.0554V47.0578Z" fill="black"/>
<path d="M38.3258 39.2656C38.6241 39.176 38.9687 39.0721 39.1154 38.7411C39.262 38.4102 39.1924 37.9598 38.9088 37.8152C38.6644 37.6898 38.3613 37.8546 38.2256 37.9287C38.0122 38.0472 37.8438 38.2299 37.7453 38.4496C37.6789 38.6001 37.65 38.7639 37.661 38.9275C37.6513 39.0523 37.6921 39.1759 37.7746 39.2716C37.914 39.3911 38.1535 39.3194 38.3258 39.2716" fill="#FFAAAF"/>
<path d="M38.3258 39.2656C38.6241 39.176 38.9687 39.0721 39.1154 38.7411C39.262 38.4102 39.1924 37.9598 38.9088 37.8152C38.6644 37.6898 38.3613 37.8546 38.2256 37.9287C38.0122 38.0472 37.8438 38.2299 37.7453 38.4496C37.6789 38.6001 37.65 38.7639 37.661 38.9275C37.6513 39.0523 37.6921 39.1759 37.7746 39.2716C37.9164 39.3887 38.1535 39.317 38.3258 39.2656Z" stroke="black" stroke-miterlimit="10"/>
<path d="M33.1217 34.0865C32.2286 34.0901 31.3466 33.8927 30.5441 33.5094C30.4522 33.468 30.3696 33.409 30.3014 33.3358C30.2332 33.2627 30.1807 33.1769 30.147 33.0835C30.1134 32.9901 30.0992 32.8911 30.1054 32.7923C30.1116 32.6935 30.1381 32.597 30.1831 32.5083C30.2282 32.4197 30.2911 32.3408 30.3679 32.2763C30.4448 32.2119 30.5341 32.1632 30.6305 32.1331C30.727 32.103 30.8287 32.0921 30.9295 32.1012C31.0303 32.1102 31.1283 32.1389 31.2176 32.1856C31.8691 32.4932 32.5881 32.6389 33.311 32.6099C34.0339 32.581 34.7384 32.3782 35.362 32.0195C35.447 31.9656 35.5423 31.9289 35.6421 31.9117C35.742 31.8944 35.8443 31.897 35.9431 31.9192C36.0419 31.9414 36.1352 31.9827 36.2173 32.0408C36.2994 32.099 36.3688 32.1726 36.4212 32.2574C36.4736 32.3422 36.5081 32.4365 36.5225 32.5346C36.537 32.6327 36.5311 32.7326 36.5053 32.8285C36.4794 32.9243 36.4341 33.0141 36.3721 33.0925C36.3101 33.1709 36.2326 33.2363 36.1442 33.2848C35.2299 33.8156 34.1851 34.0932 33.1217 34.0877" fill="black"/>
<path d="M33.3175 66.5095C33.1169 66.5095 32.9245 66.4316 32.7826 66.2929C32.6407 66.1542 32.561 65.9661 32.561 65.77C32.561 59.7687 28.7246 57.5094 28.2834 57.2669C25.0402 56.1102 22.3175 53.8738 20.5931 50.9502C18.8686 48.0266 18.2528 44.6026 18.8535 41.2793C19.4543 37.956 21.2333 34.9457 23.8783 32.7769C26.5233 30.6082 29.8653 29.4194 33.3175 29.4194C36.7698 29.4194 40.1117 30.6082 42.7567 32.7769C45.4017 34.9457 47.1808 37.956 47.7815 41.2793C48.3823 44.6026 47.7664 48.0266 46.042 50.9502C44.3176 53.8738 41.5948 56.1102 38.3517 57.2669C37.9985 57.4569 34.0741 59.7054 34.0741 65.7676C34.0741 65.9637 33.9944 66.1518 33.8525 66.2905C33.7106 66.4292 33.5182 66.5071 33.3175 66.5071V66.5095ZM28.9177 55.9252L28.9409 55.9371C29.0986 56.0184 31.923 57.5178 33.3102 61.2873C34.6974 57.5142 37.5231 56.0184 37.6807 55.9371C37.7129 55.92 37.7464 55.9052 37.7809 55.8929C40.6964 54.8633 43.1471 52.8616 44.7018 50.2399C46.2565 47.6183 46.8158 44.5446 46.2811 41.5597C45.7465 38.5747 44.1522 35.8697 41.7787 33.9205C39.4052 31.9712 36.4046 30.9026 33.3047 30.9026C30.2048 30.9026 27.2042 31.9712 24.8307 33.9205C22.4572 35.8697 20.8629 38.5747 20.3283 41.5597C19.7936 44.5446 20.3529 47.6183 21.9076 50.2399C23.4624 52.8616 25.913 54.8633 28.8285 55.8929C28.8518 55.9009 28.8746 55.91 28.8969 55.9204L28.9177 55.9252Z" fill="black"/>
<path d="M31.9844 33.2381C31.9844 33.2381 31.9624 32.9203 31.9246 32.3635C31.905 32.0863 31.8916 31.7446 31.8586 31.3635C31.8256 30.9824 31.795 30.5487 31.7632 30.0767C31.7315 29.6048 31.6752 29.0934 31.6263 28.5522C31.5775 28.011 31.5139 27.4435 31.4394 26.8581C31.3648 26.2726 31.2915 25.6633 31.1876 25.0552C31.0837 24.447 30.9676 23.827 30.8613 23.2069C30.7256 22.594 30.6058 21.9751 30.4384 21.3813C30.2917 20.7839 30.0986 20.2045 29.9239 19.6417C29.7185 19.0921 29.5438 18.5497 29.3201 18.0587C29.1233 17.5557 28.8801 17.1029 28.6736 16.6835C28.4389 16.2749 28.2373 15.8902 28.027 15.5688C27.8168 15.2474 27.6372 14.9631 27.4661 14.7456L26.9332 14.0551L26.9259 14.0443C26.9008 14.0098 26.89 13.9674 26.8954 13.9255C26.9009 13.8835 26.9223 13.8451 26.9554 13.8179C26.9885 13.7907 27.0308 13.7766 27.074 13.7785C27.1172 13.7804 27.1581 13.7981 27.1886 13.8281L27.8095 14.4792C28.0063 14.6871 28.2128 14.9667 28.4682 15.2749C28.599 15.4266 28.7127 15.6059 28.841 15.7875C28.9693 15.9691 29.1074 16.1626 29.237 16.3705C29.4814 16.7934 29.7699 17.2427 30.0131 17.748C30.2795 18.2439 30.5093 18.7863 30.7537 19.3478C30.9652 19.9189 31.1974 20.5067 31.3807 21.1185C31.586 21.7254 31.7473 22.3538 31.916 22.9787C32.0651 23.6071 32.2154 24.238 32.3242 24.864C32.433 25.4901 32.5454 26.1054 32.6383 26.7027C32.7312 27.3001 32.7996 27.8784 32.8656 28.428C32.9316 28.9776 32.9695 29.5033 33.016 29.9812C33.0624 30.4591 33.0856 30.9047 33.1088 31.2954C33.1321 31.6861 33.1443 32.023 33.159 32.3026C33.1797 32.8605 33.192 33.1783 33.192 33.1783C33.1946 33.3315 33.1363 33.4797 33.0294 33.5917C32.9225 33.7037 32.7754 33.7708 32.6189 33.7789C32.4624 33.7869 32.3088 33.7353 32.1905 33.6349C32.0721 33.5344 31.9983 33.393 31.9844 33.2404" fill="black"/>
<path d="M30.9029 23.2417C30.7408 23.24 30.5796 23.2191 30.4226 23.1796C29.5737 22.9751 28.7945 22.5564 28.163 21.9654C27.5314 21.3744 27.0694 20.6317 26.8233 19.8116C26.739 19.5225 26.684 19.2333 26.6314 18.9538C26.5422 18.4759 26.4579 18.0314 26.244 17.6754C25.8871 17.078 25.177 16.7303 24.4242 16.3611C24.2579 16.2787 24.0905 16.1963 23.9292 16.1114C22.8194 15.5332 21.3418 14.5009 20.6049 12.8677C19.8679 11.2345 20.116 9.37661 21.2159 8.20814C21.9639 7.41482 23.0578 6.97754 24.297 6.97754C25.008 6.97752 25.711 7.12408 26.3601 7.40765C27.6207 7.97109 28.6282 8.96409 29.1943 10.201C29.3622 10.5903 29.5055 10.9893 29.6233 11.3957C29.7944 11.9477 29.9569 12.471 30.2417 12.9035C30.4777 13.2328 30.7462 13.5385 31.0435 13.8163C31.3299 14.0895 31.5962 14.3821 31.8403 14.6921C32.7814 15.9346 32.9268 17.4293 32.8841 18.4651C32.8315 19.7316 32.4954 20.9395 32.1703 22.1079C32.1006 22.3552 31.9723 22.814 31.5446 23.0637C31.3504 23.1759 31.1284 23.2334 30.9029 23.2298V23.2417ZM24.3032 8.14959C23.4061 8.14959 22.6276 8.45067 22.1118 8.99907C21.3467 9.8103 21.1829 11.1998 21.7146 12.3766C22.3122 13.7016 23.5601 14.5642 24.5024 15.0553C24.6564 15.1353 24.814 15.213 24.9729 15.2942C25.8077 15.7052 26.7536 16.1724 27.295 17.0673C27.6165 17.6025 27.7253 18.176 27.8291 18.7303C27.878 18.9944 27.9257 19.2429 27.9941 19.4783C28.1826 20.096 28.5312 20.6556 29.0062 21.1028C29.4811 21.55 30.0663 21.8695 30.7049 22.0303C30.7734 22.0469 30.8434 22.0569 30.9139 22.0601C30.9525 21.9771 30.9832 21.8907 31.0056 21.8021C31.3123 20.6981 31.6313 19.5559 31.6778 18.4233C31.7132 17.5774 31.6008 16.3671 30.8699 15.4006C30.6579 15.1346 30.4276 14.8831 30.1806 14.6479C29.8244 14.3143 29.5045 13.9456 29.2261 13.5475C28.8509 12.9752 28.6565 12.3527 28.4683 11.7458C28.3637 11.3833 28.2376 11.0271 28.0907 10.6789C27.6459 9.70639 26.8538 8.9257 25.8627 8.48293C25.3705 8.2696 24.8379 8.16009 24.2995 8.16154L24.3032 8.14959Z" fill="black"/>
<path d="M32.6841 33.3504C32.6841 33.3504 32.6719 32.9513 32.6841 32.2751C32.6964 31.5988 32.7269 30.6239 32.8259 29.4626C32.8748 28.8832 32.9298 28.2547 33.0044 27.5916C33.0789 26.9285 33.173 26.2308 33.2806 25.5104C33.5091 24.0767 33.7817 22.5402 34.1642 21.03C34.3512 20.2738 34.5614 19.5235 34.7753 18.7875C34.9892 18.0515 35.2373 17.3371 35.489 16.6489C35.7408 15.9607 36.0182 15.3095 36.2932 14.6954C36.5682 14.0813 36.8542 13.515 37.1268 12.9941C37.3993 12.4732 37.6816 12.0144 37.9407 11.613C38.1998 11.2115 38.4443 10.8722 38.6337 10.5879C38.8231 10.3035 39.0113 10.11 39.1226 9.95824L39.2961 9.73841C39.3203 9.70403 39.3574 9.68043 39.3993 9.67281C39.4413 9.66519 39.4846 9.67418 39.5198 9.69778C39.5549 9.72139 39.5791 9.75769 39.5869 9.79869C39.5947 9.83969 39.5855 9.88204 39.5613 9.91642C39.5613 9.91642 39.3536 10.2414 39.0028 10.8113C38.8427 11.1064 38.6215 11.4469 38.4186 11.8675C38.3135 12.0753 38.1962 12.2928 38.0849 12.5294L37.7391 13.2737C37.5105 13.7982 37.271 14.3693 37.0449 14.9834C36.8188 15.5975 36.6 16.2522 36.3898 16.9344C36.1796 17.6166 35.9791 18.3263 35.7921 19.0515C35.6051 19.7767 35.4426 20.5211 35.2947 21.2678C35.2202 21.6418 35.148 22.0145 35.0821 22.3885C35.0161 22.7624 34.9439 23.1328 34.8828 23.5032C34.7606 24.2415 34.6518 24.9727 34.5565 25.68C34.3805 27.097 34.2278 28.422 34.1349 29.5618C34.042 30.7016 33.9748 31.6502 33.9442 32.3097C33.9137 32.9692 33.8978 33.3468 33.8978 33.3468C33.8761 33.4891 33.8027 33.6189 33.691 33.7126C33.5793 33.8062 33.4368 33.8572 33.2896 33.8564C33.1425 33.8555 33.0006 33.8027 32.89 33.7078C32.7795 33.6129 32.7077 33.4821 32.6878 33.3396" fill="black"/>
<path d="M35.5363 19.7935C35.3529 19.7934 35.1701 19.7734 34.9912 19.7338C34.8568 19.7043 34.7368 19.6305 34.6515 19.5247C33.5356 18.1543 33.4122 16.3717 33.5063 15.1172C33.5912 14.2333 33.7328 13.3554 33.9304 12.4888C34.0379 11.9715 34.1479 11.4374 34.2286 10.9153C34.3252 10.2868 34.385 9.63332 34.4437 9.00368C34.5574 7.78144 34.6735 6.51739 35.0548 5.29994C35.7539 3.0753 37.3293 1.26764 39.2701 0.462371C40.0129 0.156783 40.8107 -0.000426128 41.6167 8.67488e-07C43.2116 8.67488e-07 44.6843 0.597379 45.6584 1.64518C47.0822 3.17566 47.4489 5.6046 46.575 7.83521C45.9236 9.50787 44.633 11.0861 42.6311 12.656C42.4648 12.7863 42.2962 12.9153 42.1275 13.0431C41.3136 13.6656 40.546 14.2522 40.0083 15.0169C39.7023 15.4838 39.4385 15.9759 39.22 16.4876C39.0003 16.9969 38.7433 17.49 38.4512 17.9632C37.8805 18.8461 36.8159 19.7887 35.5363 19.7887V19.7935ZM35.4606 18.6035C36.1438 18.6442 36.9088 18.1352 37.4283 17.3311C37.689 16.9067 37.9193 16.4652 38.1176 16.0097C38.3656 15.4307 38.6663 14.8745 39.0159 14.3478C39.6587 13.4326 40.5375 12.7612 41.3881 12.1124C41.5519 11.9858 41.7169 11.8603 41.877 11.7325C43.7298 10.2749 44.864 8.9069 45.4445 7.41465C46.1412 5.62252 45.8674 3.62608 44.7638 2.44208C44.0182 1.6416 42.8718 1.18281 41.6167 1.18281C40.9752 1.18378 40.3403 1.30969 39.7492 1.55318C38.1322 2.22344 36.8159 3.75512 36.2171 5.65C35.8712 6.75157 35.7649 7.89853 35.6524 9.11479C35.5925 9.76474 35.5302 10.4362 35.4288 11.0981C35.3432 11.6501 35.2296 12.1985 35.1208 12.7301C34.9328 13.547 34.7977 14.3746 34.7163 15.208C34.6393 16.1901 34.715 17.5629 35.4606 18.6083V18.6035Z" fill="black"/>
<path d="M33.1203 32.7577C33.1203 32.7577 33.1948 32.4841 33.328 32.0074C33.3904 31.7685 33.4747 31.4782 33.5859 31.1388C33.6971 30.7995 33.8108 30.422 33.966 30.0134C34.0418 29.8103 34.1188 29.5988 34.1994 29.3802L34.4757 28.7099C34.6553 28.2463 34.8961 27.7768 35.1259 27.2858C35.3813 26.8079 35.6282 26.3001 35.9301 25.8138C36.2099 25.3156 36.5411 24.8353 36.8613 24.3526C37.2072 23.8843 37.5494 23.4171 37.9161 22.9751C38.2681 22.5247 38.6592 22.1172 39.016 21.7122C39.4035 21.3287 39.764 20.9464 40.1404 20.6178L40.6782 20.1304L41.1989 19.6967C41.5276 19.4123 41.8515 19.1793 42.1326 18.9667C42.4137 18.754 42.6618 18.5724 42.872 18.4314L43.5259 17.9798C43.5625 17.9543 43.6078 17.9436 43.6522 17.9501C43.6967 17.9566 43.7369 17.9796 43.7643 18.0145C43.7917 18.0493 43.8042 18.0932 43.7992 18.1369C43.7941 18.1806 43.772 18.2206 43.7373 18.2486H43.7312L43.1201 18.7421C42.9246 18.8962 42.6911 19.0897 42.4345 19.3227C42.1778 19.5557 41.8784 19.8006 41.5789 20.1017L41.0986 20.5569L40.6098 21.0647C40.2651 21.4064 39.94 21.8006 39.588 22.1925C39.258 22.6035 38.9024 23.0145 38.5858 23.4661C38.2693 23.9177 37.9515 24.3765 37.6448 24.8413C37.3612 25.3192 37.0679 25.7971 36.8174 26.2834C36.5472 26.7613 36.3285 27.2547 36.1036 27.723C35.9019 28.2009 35.6942 28.6621 35.5304 29.1113L35.286 29.7613L35.077 30.3766C34.9376 30.7709 34.8325 31.1365 34.7372 31.4519C34.6419 31.7673 34.5563 32.0576 34.4928 32.299C34.3706 32.7769 34.2923 33.0517 34.2923 33.0517C34.2736 33.1281 34.2394 33.2 34.1918 33.2634C34.1443 33.3268 34.0843 33.3802 34.0153 33.4206C33.9464 33.4611 33.8699 33.4877 33.7903 33.4989C33.7108 33.5101 33.6297 33.5056 33.5519 33.4859C33.4741 33.4661 33.4011 33.4314 33.3372 33.3837C33.2733 33.3361 33.2197 33.2764 33.1796 33.2083C33.1396 33.1402 33.1138 33.0649 33.1038 32.987C33.0938 32.909 33.0998 32.8298 33.1215 32.7542L33.1203 32.7577Z" fill="black"/>
<path d="M38.1604 24.14C38.0805 24.14 38.0014 24.1245 37.9277 24.0944C37.854 24.0643 37.7871 24.0202 37.7309 23.9646C37.6747 23.9091 37.6304 23.8432 37.6005 23.7707C37.5706 23.6983 37.5557 23.6208 37.5567 23.5427C37.5567 21.3766 38.2338 19.3001 39.4633 17.6979C40.8077 15.9404 42.79 14.7935 44.891 14.5509C45.1068 14.5259 45.3239 14.5131 45.5412 14.5127C46.7035 14.5127 47.6665 14.8914 48.2544 15.5772C48.8423 16.263 49.0439 17.2248 48.8264 18.1842C48.6565 18.9261 48.2581 19.6418 47.6042 20.3694C46.5336 21.5641 45.0193 22.5199 43.2239 23.1496C41.4481 23.7685 39.6161 23.9991 38.213 24.1317C38.1935 24.1329 38.1739 24.1329 38.1543 24.1317L38.1604 24.14ZM45.5351 15.6931C45.3651 15.6937 45.1954 15.7037 45.0266 15.723C43.2789 15.9249 41.5593 16.9273 40.4251 18.4052C39.4755 19.643 38.9035 21.2117 38.7838 22.882C39.9949 22.7446 41.4334 22.514 42.8169 22.0337C44.418 21.4757 45.7587 20.6298 46.6925 19.588C47.2009 19.0205 47.5211 18.4614 47.6433 17.9249C47.7777 17.3275 47.6567 16.7206 47.3255 16.3347C46.8464 15.7851 45.9995 15.7015 45.5375 15.7015L45.5351 15.6931Z" fill="black"/>
<path d="M36.7771 44.9229C36.9555 45.0424 37.1621 45.1798 37.4102 45.1153C37.6583 45.0507 37.877 44.8178 37.8355 44.6051C37.7988 44.4223 37.5752 44.3315 37.4762 44.2909C37.3179 44.2291 37.1434 44.219 36.9787 44.2622C36.8668 44.2911 36.7637 44.346 36.6781 44.4223C36.605 44.4715 36.5542 44.5464 36.5363 44.6314C36.5302 44.7533 36.6732 44.85 36.7771 44.9229Z" fill="#FFAAAF"/>
<path d="M36.7771 44.9229C36.9555 45.0424 37.1621 45.1798 37.4102 45.1153C37.6583 45.0507 37.877 44.8178 37.8355 44.6051C37.7988 44.4223 37.5752 44.3315 37.4762 44.2909C37.3179 44.2291 37.1434 44.219 36.9787 44.2622C36.8668 44.2911 36.7637 44.346 36.6781 44.4223C36.605 44.4715 36.5542 44.5464 36.5363 44.6314C36.5302 44.7533 36.6732 44.85 36.7771 44.9229Z" stroke="black" stroke-miterlimit="10"/>
<path d="M38.0955 50.3327C38.2116 50.4104 38.3399 50.5 38.5062 50.4522C38.6724 50.4044 38.808 50.2599 38.7811 50.1213C38.7579 50.0018 38.6137 49.9444 38.5489 49.9182C38.4463 49.8781 38.3332 49.8714 38.2263 49.899C38.1535 49.9185 38.0865 49.9546 38.0307 50.0042C37.9832 50.0357 37.9503 50.0842 37.9391 50.1392C37.9354 50.2252 38.0283 50.2873 38.0955 50.3327Z" fill="#FFAAAF"/>
<path d="M38.0955 50.3327C38.2116 50.4104 38.3399 50.5 38.5062 50.4522C38.6724 50.4044 38.808 50.2599 38.7811 50.1213C38.7579 50.0018 38.6137 49.9444 38.5489 49.9182C38.4463 49.8781 38.3332 49.8714 38.2263 49.899C38.1535 49.9185 38.0865 49.9546 38.0307 50.0042C37.9832 50.0357 37.9503 50.0842 37.9391 50.1392C37.9354 50.2252 38.0283 50.2873 38.0955 50.3327Z" stroke="black" stroke-miterlimit="10"/>
<path d="M9.89173 72.2913H12.3984L16.2018 81.363H13.9237L13.2075 79.498H9.11931L8.4239 81.363H6.13965L9.89173 72.2913ZM11.1506 74.1073L9.68396 77.9663H12.6172L11.1506 74.1073Z" fill="#231F20"/>
<path d="M24.8803 80.2876C24.5208 80.7189 24.0634 81.0625 23.5445 81.2912C22.9863 81.5153 22.3866 81.6239 21.7833 81.6102C20.3077 81.6102 19.1129 81.1701 18.1987 80.29C17.2845 79.4098 16.8286 78.2541 16.8311 76.8228C16.8311 75.3787 17.2869 74.2238 18.1987 73.358C19.1104 72.4922 20.3257 72.0589 21.8444 72.0581C23.1668 72.0581 24.2456 72.3301 25.0808 72.8741C25.4796 73.1214 25.8191 73.4498 26.0762 73.837C26.3333 74.2242 26.502 74.6611 26.5706 75.1179H24.3572C24.2394 74.6678 23.9447 74.2814 23.5371 74.0426C23.1249 73.7965 22.5867 73.6734 21.9227 73.6734C21.0394 73.6734 20.3469 73.9522 19.845 74.5097C19.343 75.0673 19.0913 75.8359 19.0896 76.8156C19.0896 77.8001 19.352 78.5715 19.8767 79.1299C20.4014 79.6882 21.1225 79.967 22.04 79.9662C22.7268 79.9662 23.3021 79.7918 23.7657 79.4429C24.2292 79.0906 24.5357 78.577 24.6212 78.0092H22.2306V76.456H26.5987V81.3629H25.1455L24.8803 80.2876Z" fill="#231F20"/>
<path d="M28.6826 81.363V72.2913H33.7962C34.9459 72.2913 35.7981 72.5027 36.353 72.9257C36.9079 73.3486 37.1849 73.995 37.1841 74.8648C37.2022 75.3565 37.0606 75.8413 36.7795 76.2495C36.4946 76.6281 36.0822 76.8964 35.6148 77.007C36.0735 77.1471 36.3994 77.3606 36.5925 77.6474C36.7856 77.9341 36.8969 78.3813 36.9262 78.9891L36.969 80.0643V80.1014C36.9836 80.6422 37.1197 80.9704 37.3772 81.0859V81.363H35C34.915 81.2143 34.8555 81.0528 34.8241 80.8851C34.7796 80.665 34.7543 80.4416 34.7483 80.2173L34.7202 79.2615C34.6957 78.6983 34.5735 78.3184 34.3535 78.1217C34.1323 77.9245 33.7314 77.8266 33.1546 77.8266H30.8532V81.363H28.6826ZM30.8532 76.2602H33.4027C33.9567 76.2602 34.3641 76.1639 34.6248 75.9711C34.8852 75.7788 35.0147 75.4741 35.0147 75.0607C35.0147 74.6625 34.8884 74.3638 34.6358 74.1646C34.3833 73.9655 34.006 73.864 33.5041 73.86H30.8532V76.2602Z" fill="#231F20"/>
<path d="M39.2251 81.363V72.2913H41.3945V81.363H39.2251Z" fill="#231F20"/>
<path d="M43.6602 81.363V72.2913H51.322V73.8671H45.7977V75.8003H50.8466V77.3534H45.7977V79.6904H51.5774V81.363H43.6602Z" fill="#231F20"/>
<path d="M52.0713 81.363L55.3932 76.7298L52.0774 72.2913H54.5841L56.7376 75.4621L58.8788 72.2913H61.3989L58.0832 76.7119L61.3953 81.363H58.8898L56.7376 78.2196L54.578 81.363H52.0713Z" fill="#231F20"/>
</svg>
