<svg width="136" height="205" viewBox="0 0 136 205" fill="none" xmlns="http://www.w3.org/2000/svg">
<g clip-path="url(#clip0_567_901)">
<path d="M101.13 109.101C101.131 111.31 100.917 113.514 100.492 115.683C99.3464 121.508 96.7395 126.948 92.9152 131.496C89.091 136.043 84.1739 139.55 78.6233 141.688H78.4308L78.2774 141.85C76.8034 142.699 67.8904 148.407 67.3008 162.321H65.0357C64.4762 149.311 56.6761 143.479 54.3117 142.003V141.934L53.9056 141.757L53.7763 141.679H53.7282H53.7071C47.8534 139.45 42.7075 135.693 38.8074 130.8C34.9073 125.908 32.3963 120.06 31.537 113.868C30.6777 107.676 31.5016 101.368 33.9227 95.6023C36.3437 89.8368 40.2729 84.8262 45.2994 81.0944C49.9747 77.6209 55.4514 75.3781 61.2244 74.5729C61.923 74.6458 62.6291 74.5815 63.303 74.3838C64.5905 74.0146 66.3562 74.1137 67.9836 74.1917C68.7356 74.2217 69.4636 74.2217 70.1916 74.2067L70.1134 74.4288L71.0158 74.5578C88.1771 76.9588 101.118 91.8025 101.118 109.107" fill="#FF1C24"/>
<path d="M71.3644 138.653C64.2959 138.653 57.3936 136.515 51.5687 132.52C45.7438 128.525 41.2702 122.861 38.7384 116.277C38.7594 118.549 38.3353 120.8 38.2781 123.101C38.2248 125.11 38.2941 127.119 38.4857 129.119C38.7053 129.419 38.9219 129.719 39.1445 130.019C42.8508 135.054 47.6474 139.19 53.1773 142.12C57.6023 144.455 61.6843 146.796 64.554 151.006C64.703 151.215 64.7981 151.457 64.8308 151.712C65.7259 152.867 66.4287 154.159 66.9124 155.538C68.3713 151.384 70.8921 147.324 73.6957 144.794C76.9715 141.844 80.846 140.265 84.919 139.125C85.3975 137.903 85.8043 136.654 86.1373 135.385C81.5122 137.54 76.4691 138.656 71.3644 138.653Z" fill="#E30000"/>
<path d="M103.046 109.752C103.048 111.962 102.835 114.166 102.408 116.334C101.067 119.164 99.3238 121.786 97.2314 124.119C100.167 116.969 100.475 109.015 98.0999 101.661C95.725 94.3068 90.8204 88.0274 84.2533 83.9327C77.6862 79.838 69.8795 78.1916 62.2133 79.2847C54.547 80.3777 47.515 84.1398 42.3604 89.9058C43.5711 86.9605 45.2112 84.2098 47.2275 81.7426C51.9023 78.2685 57.3793 76.0256 63.1525 75.2211C63.8513 75.293 64.5574 75.2278 65.2311 75.029C66.5215 74.6629 68.2843 74.7619 69.9117 74.8369C70.6637 74.87 71.3917 74.87 72.1197 74.8369L72.0445 75.059L72.9469 75.1911C90.1082 77.592 103.049 92.4327 103.049 109.737" fill="#FFDEDE"/>
<path d="M101.644 47.2863C99.4875 51.3859 95.583 54.4021 91.2664 56.0947C86.9497 57.7874 82.242 58.2495 77.5915 58.1175C77.5433 53.5413 79.0499 49.0836 81.8658 45.4709C84.6817 41.8582 88.6409 39.3034 93.0983 38.2228C94.834 37.7997 96.6689 37.6226 98.3986 38.0517C100.128 38.4809 101.747 39.6304 102.423 41.278C103.218 43.2107 102.616 45.4406 101.644 47.2803" fill="#4A7132"/>
<path d="M101.373 43.8169C102.089 42.0162 101.394 39.7443 100.005 38.3878C98.6149 37.0312 96.5935 36.437 94.6502 36.497C92.707 36.5571 90.8239 37.2233 89.0882 38.0997C85.9627 39.6503 83.2807 41.9638 81.2912 44.8252C79.3107 47.7024 78.2609 51.1157 78.2831 54.606C78.2981 55.5334 78.4335 56.5388 79.0862 57.196C79.2704 57.0075 79.3857 56.7626 79.4135 56.5007C79.4413 56.2389 79.3801 55.9754 79.2396 55.7525C81.0205 52.3612 82.8253 48.9338 85.3702 46.0707C87.9151 43.2076 91.3202 40.9177 95.1285 40.4766C96.4058 40.2849 97.7112 40.4372 98.9097 40.9177C100.083 41.4399 101.13 42.5624 101.379 43.8169" fill="#D7FFB5"/>
<path d="M80.3649 38.2287C82.4977 34.9664 85.4306 32.3224 88.3334 29.7114C91.2363 27.1004 94.1541 24.4084 96.1996 21.0951C98.2452 17.7818 99.3883 13.7063 98.3896 9.9398C97.9519 8.37627 97.1903 6.92174 96.154 5.67019C95.1177 4.41865 93.8297 3.39793 92.3733 2.674C89.4199 1.24581 86.038 0.970708 82.8917 1.9027C77.5192 3.47231 73.5335 8.20513 71.4428 13.3701C69.3522 18.5351 68.8799 24.2163 68.4347 29.7834C68.2342 32.1844 68.0397 34.5853 67.8512 36.9862C67.6225 39.7893 67.43 42.7815 68.7897 45.2454C69.3702 46.2958 70.2937 47.2412 71.4639 47.4933C73.2026 47.8654 74.8841 46.6379 76.0182 45.2694C77.7809 43.1446 78.8639 40.5486 80.377 38.2377" fill="#76B345"/>
<path d="M91.8561 26.5901C93.8806 24.6214 95.8629 22.5716 97.3399 20.1677C98.8169 17.7637 99.7735 14.9577 99.5719 12.1456C99.2922 8.22006 96.6721 4.62467 93.1526 2.84198C89.6331 1.0593 85.3315 1.0593 81.6706 2.50285C78.0097 3.94641 74.9535 6.75849 72.917 10.1288C75.7266 7.07061 79.3905 4.42659 83.5447 4.24352C88.0328 4.04245 92.5119 7.14564 93.7302 11.4463C94.8642 15.4558 93.288 19.7895 90.8634 23.1808C88.4389 26.5721 85.2082 29.2942 82.4407 32.4094C79.6732 35.5246 77.7691 39.8913 77.5916 44.0539C81.0148 37.3943 86.4686 31.8121 91.8561 26.5901Z" fill="#D7FFB5"/>
<path d="M44.054 39.3542C45.4137 39.9694 46.9088 40.4106 47.9796 41.455C49.6883 43.1176 49.8116 45.7617 50.5215 48.0365C51.0927 49.82 52.0643 51.4499 53.3623 52.8021C54.6603 54.1543 56.2505 55.1931 58.0117 55.8395C58.8209 56.1397 59.7654 56.3197 60.5054 55.8815C61.2454 55.4434 61.5252 54.543 61.7478 53.7207C62.5149 50.9206 63.2849 48.0906 63.4143 45.1914C63.5436 42.2923 62.9811 39.2702 61.2936 36.9052C59.8858 34.9335 57.7741 33.5109 56.5407 31.4251C54.796 28.481 54.9705 24.4835 52.5309 22.0765C51.5142 21.0711 50.1545 20.4829 48.7979 20.0207C46.4786 19.2344 43.9849 18.7422 41.5784 19.1534C39.1719 19.5646 36.8255 21.0081 35.8118 23.217C35.0718 24.8376 35.0868 26.7103 35.4268 28.46C35.9095 30.8229 36.9417 33.0398 38.4402 34.932C39.9387 36.8242 41.8616 38.3389 44.054 39.3542Z" fill="#599730"/>
<path d="M59.8256 54.648C60.1836 51.5989 60.5416 48.5287 60.2919 45.4705C60.0422 42.4123 59.1338 39.3301 57.2086 36.9382C56.2189 35.7107 54.9826 34.6844 54.1343 33.3548C52.7686 31.221 52.558 28.553 51.427 26.2841C50.7779 24.9918 49.8412 23.8648 48.6885 22.9891C47.5358 22.1135 46.1977 21.5125 44.7764 21.2322C43.3551 20.9518 41.8884 20.9995 40.4884 21.3716C39.0884 21.7437 37.7923 22.4304 36.6992 23.379C37.0193 22.176 37.6728 21.0874 38.5848 20.2381C39.4967 19.3887 40.6302 18.8131 41.8551 18.5771C44.3248 18.097 46.9028 18.7452 49.1618 19.8526C51.2675 20.891 53.2499 22.4006 54.3478 24.4834C55.9301 27.4846 55.5782 31.3651 57.735 33.9761C58.5983 35.0235 59.7895 35.7588 60.6769 36.7822C61.7087 37.9826 62.2802 39.4832 62.6533 41.0048C63.6591 45.0988 63.3432 49.4052 61.7508 53.3095C61.5935 53.8067 61.2895 54.245 60.8785 54.567C60.4393 54.8461 60.0753 55.0952 59.8377 54.636" fill="#D7FFB5"/>
<path d="M35.4509 123.242C34.0695 120.117 33.2478 116.774 33.0233 113.366C32.7737 110.109 32.3676 103.621 35.6735 96.259C38.1061 91.0182 41.8449 86.4872 46.5328 83.0989C50.3228 80.3844 54.6182 78.4528 59.1669 77.4177C64.8161 76.1242 69.196 76.6344 73.0464 77.1176C75.3205 77.3937 85.7105 78.6692 86.0083 81.7154C86.1437 83.0839 84.2426 84.8876 82.6994 85.7069C80.9968 86.6073 79.8267 86.2741 79.3905 87.1835C78.7889 88.432 80.6298 89.8455 79.9109 91.5202C79.8688 91.6192 79.4597 92.5496 78.8671 92.5616C77.6067 92.5946 77.2848 88.441 75.9101 88.3119C74.7068 88.1949 74.5053 91.3131 71.4701 93.5159C69.7705 94.7554 69.1208 94.3442 67.8604 95.5657C66.3142 97.0663 66.994 98.5249 65.7547 100.725C63.297 105.091 60.5476 104.926 60.1355 107.627C59.7324 110.244 61.9915 112.789 63.3843 114.38C66.1668 117.549 68.3747 117.561 68.7538 119.815C69.1117 121.955 67.4693 123.987 67.2497 124.257C66.3713 125.343 65.8329 125.244 63.7152 126.658C62.5119 127.465 61.8291 127.732 61.6847 128.215C61.4049 129.158 62.3946 129.824 62.0788 130.553C61.7779 131.219 60.6048 131.499 59.6723 131.4C57.5305 131.174 55.8219 128.903 54.3238 126.898C53.7553 126.144 53.0574 125.097 51.794 124.587C51.4932 124.464 51.2255 124.395 50.5908 124.116C49.8598 123.798 49.5439 123.612 48.6926 123.182C48.1091 122.882 47.6669 122.684 47.3871 122.549C45.7537 121.766 45.8169 121.856 45.5431 121.691C43.9127 120.703 44.2166 119.062 43.0013 118.672C42.6558 118.583 42.2937 118.58 41.947 118.664C41.6002 118.748 41.2794 118.915 41.0129 119.152C40.2097 119.884 40.2278 121.055 40.1827 124.608C40.1315 128.629 40.0924 129.08 39.8307 129.197C39.0125 129.56 36.8376 126.289 35.4599 123.242" fill="#FFAAAF"/>
<path d="M35.4509 123.242C34.0695 120.117 33.2478 116.774 33.0233 113.366C32.7737 110.109 32.3676 103.621 35.6735 96.259C38.1061 91.0182 41.8449 86.4872 46.5328 83.0989C50.3228 80.3844 54.6182 78.4528 59.1669 77.4177C64.8161 76.1242 69.196 76.6344 73.0464 77.1176C75.3205 77.3937 85.7105 78.6692 86.0083 81.7154C86.1437 83.0839 84.2426 84.8876 82.6994 85.7069C80.9968 86.6073 79.8267 86.2741 79.3905 87.1835C78.7889 88.432 80.6298 89.8455 79.9109 91.5202C79.8688 91.6192 79.4597 92.5496 78.8671 92.5616C77.6067 92.5946 77.2848 88.441 75.9101 88.3119C74.7068 88.1949 74.5053 91.3131 71.4701 93.5159C69.7705 94.7554 69.1208 94.3442 67.8604 95.5657C66.3142 97.0663 66.994 98.5249 65.7547 100.725C63.297 105.091 60.5476 104.926 60.1355 107.627C59.7324 110.244 61.9915 112.789 63.3843 114.38C66.1668 117.549 68.3747 117.561 68.7538 119.815C69.1117 121.955 67.4693 123.987 67.2497 124.257C66.3713 125.343 65.8329 125.244 63.7152 126.658C62.5119 127.465 61.8291 127.732 61.6847 128.215C61.4049 129.158 62.3946 129.824 62.0788 130.553C61.7779 131.219 60.6048 131.499 59.6723 131.4C57.5305 131.174 55.8219 128.903 54.3238 126.898C53.7553 126.144 53.0574 125.097 51.794 124.587C51.4932 124.464 51.2255 124.395 50.5908 124.116C49.8598 123.798 49.5439 123.612 48.6926 123.182C48.1091 122.882 47.6669 122.684 47.3871 122.549C45.7537 121.766 45.8169 121.856 45.5431 121.691C43.9127 120.703 44.2166 119.062 43.0013 118.672C42.6558 118.583 42.2937 118.58 41.947 118.664C41.6002 118.748 41.2794 118.915 41.0129 119.152C40.2097 119.884 40.2278 121.055 40.1827 124.608C40.1315 128.629 40.0924 129.08 39.8307 129.197C39.0035 129.56 36.8286 126.289 35.4509 123.242Z" stroke="black" stroke-width="2" stroke-miterlimit="10"/>
<path d="M84.1341 83.7563C84.4527 83.4457 84.6787 83.053 84.7868 82.6219C84.8607 82.1959 84.816 81.7578 84.6575 81.3554C82.0174 79.0597 78.9368 77.3238 75.603 76.2534C74.0271 75.7496 72.4047 75.4038 70.76 75.221L69.8575 75.089L69.9357 74.8669C69.2048 74.8819 68.4738 74.8819 67.7188 74.8489C66.0884 74.7739 64.3196 74.6748 63.0261 75.044C62.3504 75.2427 61.6423 75.3079 60.9415 75.236C55.1482 76.0453 49.6533 78.2997 44.9654 81.7906C42.9465 84.2774 41.3056 87.0471 40.0952 90.0107C46.2288 83.0601 52.3413 81.0763 55.0245 80.431C58.4056 79.6057 62.1026 79.4797 64.0489 79.4167C68.561 79.2636 70.8322 79.1886 73.5726 79.9359C78.7375 81.3464 83.018 84.8097 84.1401 83.7653" fill="#FFDEDE"/>
<path d="M53.4784 130.148C54.0229 130.265 54.1913 132.057 53.5386 132.249C52.967 132.414 51.6765 131.376 51.9262 130.896C51.9864 130.782 52.227 130.664 52.7324 130.427C53.1595 130.226 53.3731 130.127 53.4784 130.148Z" fill="#FFA3A6"/>
<path d="M53.4784 130.148C54.0229 130.265 54.1913 132.057 53.5386 132.249C52.967 132.414 51.6765 131.376 51.9262 130.896C51.9864 130.781 52.227 130.664 52.7324 130.427C53.1595 130.226 53.3731 130.124 53.4784 130.148Z" stroke="black"/>
<path d="M67.0328 118.369C65.7153 115.199 63.3629 115.842 59.9878 111.913C58.0777 109.686 57.9152 108.513 56.1043 107.288C55.5492 106.953 55.0999 106.468 54.8078 105.89C54.3837 104.989 54.3055 103.537 55.0364 102.91C55.9148 102.156 57.2113 103.225 58.2281 102.411C58.5198 102.165 58.735 101.841 58.8485 101.477C58.962 101.113 58.969 100.724 58.8688 100.356C58.568 99.4943 57.5061 99.5904 55.4456 98.4649C54.4409 97.9427 53.5811 97.1808 52.9428 96.2471C52.4735 95.5718 51.9712 94.8545 52.0734 93.8792C52.0734 93.8221 52.2389 92.4686 53.2617 91.9194C54.4228 91.2982 55.226 92.5016 56.6518 92.1055C58.1258 91.6973 57.9543 90.2177 59.8224 89.4044C60.6617 89.0492 61.5845 88.9379 62.4845 89.0833C62.8455 89.1343 64.891 89.4224 65.3092 90.6319C65.5739 91.3852 64.9602 91.7513 65.252 92.6277C65.5047 93.393 66.2116 93.8131 66.7561 94.1493C68.221 95.0226 68.937 94.5814 69.2137 95.0886C70.0319 96.5892 65.0324 102.369 64.9602 102.525C64.9602 102.525 64.9602 102.562 64.9211 102.607L64.867 102.715C64.4338 103.534 62.9899 104.425 62.9899 104.425C61.8258 105.146 61.2452 105.506 61.0076 105.947C60.436 107.018 61.0467 108.402 61.4347 109.272C61.8655 110.212 62.4897 111.05 63.2667 111.733C64.0758 112.45 64.8038 112.774 66.0672 113.369C68.2391 114.392 68.7745 114.161 69.9146 115.025C70.7186 115.636 71.3703 116.424 71.8187 117.327C71.9631 117.627 73.1122 120.055 72.0443 122.552C71.4156 124.026 70.2966 124.863 69.1596 125.715C68.4781 126.218 67.7545 126.661 66.9967 127.039C65.24 127.891 64.6895 127.66 64.2142 128.314C63.6126 129.152 64.3105 129.791 63.76 131.454C63.5032 132.228 63.0697 132.933 62.4936 133.512C62.3672 133.635 60.8722 135.097 60.1111 134.671C59.4734 134.314 60.1111 133.17 59.2809 132.147C58.7274 131.448 58.216 131.688 57.3076 130.814C56.9285 130.448 56.1825 129.707 56.3149 128.933C56.4653 128.032 57.7317 127.501 58.5469 127.33C60.1593 126.994 61.0888 127.87 61.6784 127.33C62.1958 126.865 61.549 126.13 61.925 124.908C62.3522 123.498 63.8201 122.393 65.1708 122.045C66.2387 121.769 66.72 122.096 67.1561 121.676C68.0105 120.851 67.1231 118.657 67.0057 118.375" fill="#FFAAAF"/>
<path d="M66.6236 118.546C66.1152 117.183 65.0624 116.367 63.826 115.641C62.5351 114.877 61.3516 113.945 60.3065 112.871C59.7929 112.327 59.3108 111.755 58.8626 111.157C57.9873 110.019 57.3586 108.702 56.1794 107.856C55.1476 107.237 54.2572 106.289 54.1038 105.046C53.9053 104.008 54.17 102.556 55.3822 102.237C56.2305 101.976 57.1871 102.562 57.897 102.069C58.1087 101.895 58.2703 101.668 58.3654 101.411C58.4605 101.155 58.4858 100.877 58.4385 100.608C58.3693 100.341 58.261 100.263 58.0083 100.128C57.7556 99.9926 57.3796 99.8695 57.0367 99.7374C56.3255 99.4732 55.6365 99.1531 54.9761 98.7801C53.9498 98.2009 53.0757 97.3874 52.4253 96.4062C51.956 95.7609 51.5078 94.9506 51.5228 94.0953C51.5589 92.7388 52.4433 91.2562 53.9113 91.1812C54.922 91.1451 55.8966 91.9825 56.8322 91.4122C57.3766 91.0911 57.6474 90.4009 58.1317 89.9117C58.4146 89.591 58.7478 89.3184 59.1183 89.1044C60.2052 88.4917 61.4732 88.2792 62.701 88.5041C63.9614 88.7172 65.4414 89.1254 65.9347 90.4969C66.0211 90.7662 66.0428 91.052 65.9979 91.3312C65.9377 91.7214 65.7994 91.9314 65.8264 92.2316C65.9197 92.9278 66.6928 93.342 67.2643 93.6691C67.678 93.8994 68.1326 94.0472 68.6029 94.1043C68.8569 94.1289 69.1055 94.1927 69.3399 94.2934C71.0184 95.3348 69.0722 98.0478 68.3743 99.1912C67.5171 100.46 66.5965 101.685 65.6159 102.862C65.2007 103.792 64.1118 104.599 63.2094 105.167C62.704 105.521 61.8738 105.89 61.6391 106.394C61.3383 107.225 61.7685 108.108 62.1385 108.975C62.6586 110.095 63.4816 111.048 64.5149 111.727C66.0189 112.648 67.7606 113.243 69.4452 113.861C72.7962 115.512 74.2762 120.046 72.4954 123.348C71.8829 124.383 71.0501 125.271 70.0558 125.95C68.8496 126.909 67.4927 127.662 66.04 128.179C65.3902 128.435 64.6292 128.398 64.6563 129.2C64.7667 130.114 64.6543 131.042 64.3285 131.904C64.0028 132.766 63.4734 133.537 62.7852 134.152C62.0753 134.725 61.5459 135.271 60.493 135.379C60.2177 135.386 59.9479 135.301 59.7262 135.138C59.5045 134.975 59.3435 134.743 59.2687 134.479C59.1424 134.014 59.2056 133.434 59.1063 133.095C58.9649 132.477 58.5558 132.213 57.9813 131.985C56.7148 131.322 55.0604 129.629 56.0681 128.137C57.0096 126.952 58.6821 126.544 60.12 126.778C60.5081 126.841 60.8961 126.958 61.1458 126.976C61.3052 126.976 61.3142 126.976 61.3684 126.922C61.4346 126.637 61.2962 126.205 61.3112 125.857C61.2902 123.33 63.9403 121.403 66.3198 121.451C66.5664 121.436 66.6867 121.469 66.8251 121.376C66.9298 121.259 67.0077 121.12 67.0535 120.97C67.0992 120.819 67.1116 120.661 67.0898 120.505C67.0449 119.831 66.8873 119.168 66.6236 118.546ZM67.4388 118.207C67.9201 119.407 68.621 121.634 67.0086 122.315C66.407 122.474 65.9107 122.315 65.3511 122.507C63.6997 122.945 62.0121 124.503 62.3972 126.325C62.5777 127.129 62.2468 127.99 61.2751 128.041C60.8273 128.013 60.3827 127.948 59.9456 127.846C59.4784 127.772 59.0011 127.792 58.5418 127.905C58.0825 128.018 57.6506 128.221 57.2713 128.504C57.0862 128.631 56.9553 128.822 56.9044 129.041C56.8966 129.273 56.9712 129.5 57.1149 129.683C57.4663 130.2 57.9407 130.622 58.4956 130.91C59.9456 131.403 60.4238 132.585 60.4329 133.972C60.4408 134.03 60.4519 134.088 60.466 134.146C60.4449 134.116 60.4178 134.116 60.466 134.122C60.7107 134.072 60.9417 133.969 61.1428 133.822C61.6897 133.477 62.1618 133.027 62.5313 132.498C62.9007 131.969 63.1599 131.371 63.2936 130.739C63.462 129.986 63.1552 129.239 63.4109 128.468C63.4968 128.204 63.6369 127.961 63.8223 127.754C64.0078 127.547 64.2344 127.381 64.4878 127.267C65.297 126.967 65.8174 126.85 66.5333 126.499C67.474 126.04 68.3608 125.478 69.1775 124.824C69.9686 124.224 70.7537 123.525 71.2079 122.663C72.4292 120.403 71.6381 117.261 69.5926 115.692C69.0816 115.296 68.4919 115.014 67.8629 114.863C66.4088 114.389 65.0124 113.754 63.6997 112.97C62.3451 112.078 61.2908 110.8 60.6735 109.302C60.3065 108.553 60.1015 107.735 60.0719 106.901C60.0057 104.938 62.0302 104.335 63.2846 103.36C63.7361 103.058 64.1068 102.652 64.3645 102.174C64.4081 102.099 64.4585 102.028 64.5149 101.961C65.8685 100.275 67.3215 98.495 68.2841 96.6102C68.4926 96.242 68.6159 95.8318 68.645 95.4098C68.6664 95.4414 68.6953 95.4672 68.7293 95.4848C68.6214 95.4569 68.5119 95.4358 68.4014 95.4218C67.5861 95.296 66.8097 94.9883 66.1302 94.5214C65.5367 94.1893 65.0551 93.689 64.7465 93.0839C64.5268 92.6149 64.4789 92.0839 64.6111 91.5833C64.6683 91.3642 64.7225 91.2052 64.7375 91.1031C64.7977 90.5029 64.196 90.2028 63.4861 89.9357C61.5158 89.2754 59.4973 89.6146 58.3723 91.5083C58.1184 91.8881 57.7751 92.2 57.3723 92.4166C56.9695 92.6332 56.5196 92.7479 56.0621 92.7508C55.1175 92.7508 54.3835 92.2526 53.9564 92.2946C52.8404 92.4056 52.338 94.0232 52.7953 94.9446C53.6736 96.8653 55.4454 98.0988 57.4007 98.8101C57.9391 99.0442 58.5889 99.1942 59.0401 99.6894C59.8102 100.665 59.383 102.117 58.4535 102.82C57.7376 103.378 56.763 103.15 56.023 103.078C54.6062 102.964 54.8197 104.965 55.2559 105.809C55.5567 106.409 56.1373 106.796 56.6878 107.186C57.9211 108.087 58.619 109.494 59.5124 110.662C60.3567 111.817 61.3533 112.854 62.4754 113.744C63.6425 114.671 64.9962 115.223 66.1272 116.259C66.6932 116.81 67.1396 117.47 67.4388 118.201V118.207Z" fill="black"/>
<path d="M79.2187 98.6331C79.9527 98.408 80.801 98.1469 81.1619 97.3156C81.5229 96.4843 81.3515 95.3529 80.6536 94.9897C80.0519 94.6746 79.3059 95.0888 78.972 95.2748C78.4469 95.5724 78.0322 96.0314 77.7898 96.5833C77.6263 96.9614 77.5552 97.3729 77.5823 97.7838C77.5585 98.0973 77.6589 98.4077 77.862 98.6481C78.205 98.9483 78.7946 98.7682 79.2187 98.6481" fill="#FFAAAF"/>
<path d="M79.2187 98.6331C79.9527 98.408 80.801 98.1469 81.1619 97.3156C81.5229 96.4843 81.3515 95.3529 80.6536 94.9897C80.0519 94.6746 79.3059 95.0888 78.972 95.2748C78.4469 95.5724 78.0322 96.0314 77.7898 96.5833C77.6263 96.9614 77.5552 97.3729 77.5823 97.7838C77.5585 98.0973 77.6589 98.4077 77.862 98.6481C78.211 98.9422 78.7946 98.7622 79.2187 98.6331Z" stroke="black" stroke-miterlimit="10"/>
<path d="M66.4103 85.6229C64.2121 85.6321 62.0413 85.1361 60.0662 84.1733C59.8398 84.0693 59.6367 83.9211 59.4688 83.7373C59.3009 83.5535 59.1717 83.338 59.0888 83.1035C59.006 82.869 58.9711 82.6203 58.9864 82.3721C59.0017 82.1239 59.0667 81.8813 59.1777 81.6587C59.2887 81.436 59.4433 81.2379 59.6325 81.076C59.8216 80.9141 60.0414 80.7917 60.2788 80.7161C60.5163 80.6405 60.7665 80.6132 61.0147 80.6359C61.2629 80.6586 61.504 80.7307 61.7237 80.848C63.3273 81.6206 65.097 81.9867 66.8763 81.914C68.6556 81.8412 70.3894 81.3318 71.9242 80.4309C72.1335 80.2954 72.368 80.2032 72.6138 80.1599C72.8595 80.1166 73.1114 80.123 73.3546 80.1788C73.5978 80.2345 73.8273 80.3384 74.0294 80.4844C74.2316 80.6304 74.4022 80.8154 74.5313 81.0284C74.6604 81.2415 74.7452 81.4783 74.7807 81.7247C74.8163 81.9711 74.8018 82.2221 74.7382 82.4629C74.6746 82.7036 74.5631 82.9291 74.4105 83.126C74.2578 83.3229 74.067 83.4872 73.8494 83.6091C71.5992 84.9425 69.0275 85.6397 66.4103 85.6259" fill="black"/>
<path d="M66.8914 167.068C66.3975 167.068 65.9239 166.873 65.5747 166.524C65.2255 166.176 65.0293 165.703 65.0293 165.211C65.0293 150.136 55.5869 144.461 54.5009 143.851C46.5186 140.946 39.8172 135.328 35.5729 127.984C31.3286 120.64 29.8128 112.039 31.2914 103.691C32.7701 95.3434 37.1488 87.7819 43.6589 82.334C50.169 76.8862 58.3944 73.9001 66.8914 73.9001C75.3883 73.9001 83.6138 76.8862 90.1239 82.334C96.634 87.7819 101.013 95.3434 102.491 103.691C103.97 112.039 102.454 120.64 98.2099 127.984C93.9656 135.328 87.2641 140.946 79.2818 143.851C78.4125 144.329 68.7534 149.977 68.7534 165.205C68.7534 165.697 68.5572 166.17 68.208 166.518C67.8588 166.867 67.3852 167.062 66.8914 167.062V167.068ZM56.0621 140.481L56.1193 140.511C56.5074 140.715 63.4591 144.482 66.8733 153.95C70.2875 144.473 77.2423 140.715 77.6304 140.511C77.7097 140.468 77.7921 140.431 77.877 140.4C85.0528 137.814 91.0846 132.785 94.9112 126.2C98.7379 119.615 100.114 111.894 98.7984 104.396C97.4824 96.8978 93.5584 90.1029 87.7166 85.2065C81.8749 80.3101 74.4895 77.6258 66.8598 77.6258C59.2301 77.6258 51.8447 80.3101 46.0029 85.2065C40.1611 90.1029 36.2371 96.8978 34.9212 104.396C33.6053 111.894 34.9817 119.615 38.8084 126.2C42.635 132.785 48.6668 137.814 55.8426 140.4C55.8999 140.42 55.9562 140.443 56.011 140.469L56.0621 140.481Z" fill="black"/>
<path d="M63.6129 83.4921C63.6129 83.4921 63.5587 82.6938 63.4655 81.2952C63.4174 80.599 63.3843 79.7406 63.3031 78.7833C63.2218 77.8259 63.1466 76.7365 63.0684 75.551C62.9902 74.3656 62.8518 73.0811 62.7315 71.7215C62.6112 70.362 62.4548 68.9365 62.2713 67.4659C62.0878 65.9953 61.9073 64.4647 61.6516 62.9372C61.3959 61.4096 61.1101 59.852 60.8484 58.2944C60.5145 56.7548 60.2197 55.2002 59.8076 53.7086C59.4466 52.208 58.9714 50.7525 58.5412 49.3389C58.0358 47.9584 57.6057 46.5959 57.0552 45.3624C56.5709 44.0989 55.9723 42.9615 55.4639 41.908C54.8863 40.8817 54.39 39.9153 53.8726 39.108C53.3552 38.3007 52.913 37.5864 52.4919 37.0402L51.1803 35.3055L51.1623 35.2785C51.1007 35.1919 51.0739 35.0853 51.0874 34.98C51.1009 34.8746 51.1535 34.7782 51.235 34.7098C51.3164 34.6414 51.4206 34.606 51.527 34.6108C51.6333 34.6155 51.734 34.6599 51.809 34.7353L53.3372 36.3709C53.8215 36.8931 54.3298 37.5954 54.9585 38.3697C55.2804 38.7508 55.5602 39.201 55.876 39.6572C56.1919 40.1134 56.5318 40.5995 56.8506 41.1217C57.4523 42.1842 58.1622 43.3126 58.7608 44.5821C59.4166 45.8276 59.9821 47.1901 60.5837 48.6006C61.1041 50.0352 61.6757 51.5117 62.1269 53.0483C62.6322 54.5729 63.0293 56.1515 63.4444 57.7211C63.8114 59.2998 64.1814 60.8844 64.4491 62.457C64.7169 64.0296 64.9936 65.5752 65.2222 67.0757C65.4509 68.5763 65.6193 70.0289 65.7817 71.4094C65.9442 72.79 66.0374 74.1105 66.1517 75.3109C66.266 76.5114 66.3232 77.6308 66.3804 78.6122C66.4375 79.5936 66.4676 80.4399 66.5037 81.1422C66.5548 82.5437 66.5849 83.342 66.5849 83.342C66.5914 83.7268 66.448 84.099 66.1849 84.3804C65.9218 84.6618 65.5595 84.8303 65.1744 84.8505C64.7892 84.8708 64.4112 84.7411 64.1199 84.4888C63.8287 84.2366 63.6469 83.8814 63.6129 83.4981" fill="black"/>
<path d="M60.9504 58.3816C60.5515 58.3772 60.1545 58.3248 59.7682 58.2255C57.6788 57.7117 55.7611 56.66 54.2066 55.1754C52.6521 53.6909 51.5151 51.8254 50.9093 49.7653C50.7017 49.039 50.5664 48.3127 50.437 47.6105C50.2174 46.41 50.0099 45.2936 49.4834 44.3992C48.6051 42.8986 46.8574 42.0253 45.0044 41.0979C44.5953 40.8909 44.1831 40.6838 43.7861 40.4707C41.0547 39.0181 37.4179 36.4251 35.604 32.3226C33.7901 28.22 34.4007 23.5532 37.1081 20.618C38.949 18.6253 41.6413 17.5269 44.6915 17.5269C46.4414 17.5268 48.1716 17.895 49.7692 18.6073C52.872 20.0226 55.3518 22.517 56.745 25.624C57.1583 26.6018 57.5109 27.6041 57.8009 28.6251C58.222 30.0117 58.6221 31.3262 59.323 32.4126C59.9038 33.2396 60.5647 34.0076 61.2963 34.7055C62.0013 35.3917 62.6567 36.1268 63.2576 36.9053C65.5739 40.0265 65.9318 43.781 65.8266 46.383C65.6972 49.5642 64.87 52.5984 64.0698 55.5335C63.8983 56.1547 63.5825 57.3072 62.5297 57.9344C62.0519 58.2162 61.5053 58.3605 60.9504 58.3516V58.3816ZM44.7066 20.471C42.4986 20.471 40.5824 21.2273 39.313 22.6048C37.4299 24.6426 37.0268 28.1329 38.3354 31.0891C39.8063 34.4174 42.8776 36.5842 45.1969 37.8177C45.5759 38.0188 45.964 38.2138 46.355 38.4179C48.4096 39.4503 50.7378 40.6238 52.0704 42.8716C52.8616 44.2161 53.1293 45.6567 53.385 47.0492C53.5053 47.7125 53.6226 48.3367 53.7911 48.928C54.2548 50.4797 55.1129 51.8855 56.282 53.0087C57.451 54.1319 58.8914 54.9345 60.4631 55.3384C60.6316 55.3803 60.8039 55.4055 60.9775 55.4135C61.0725 55.2048 61.148 54.9878 61.2031 54.7652C61.9581 51.9921 62.7432 49.123 62.8575 46.2779C62.9448 44.1531 62.668 41.1129 60.8692 38.685C60.3474 38.017 59.7806 37.3853 59.1726 36.7943C58.2958 35.9564 57.5085 35.0301 56.8233 34.0302C55.8998 32.5927 55.4215 31.0291 54.9582 29.5045C54.7008 28.5939 54.3904 27.699 54.0287 26.8244C52.934 24.3816 50.9844 22.4205 48.5449 21.3083C47.3336 20.7724 46.0226 20.4974 44.6975 20.501L44.7066 20.471Z" fill="black"/>
<path d="M65.3332 83.7743C65.3332 83.7743 65.3031 82.7719 65.3332 81.0733C65.3633 79.3746 65.4385 76.9257 65.6821 74.0085C65.8025 72.553 65.9378 70.9744 66.1213 69.3087C66.3048 67.6431 66.5364 65.8904 66.8012 64.0807C67.3637 60.4793 68.0345 56.6198 68.976 52.8264C69.4363 50.9266 69.9537 49.0419 70.4801 47.1932C71.0065 45.3445 71.6172 43.5498 72.2368 41.8211C72.8565 40.0925 73.5393 38.4568 74.2162 36.9142C74.893 35.3716 75.5969 33.9491 76.2677 32.6406C76.9385 31.3321 77.6334 30.1796 78.2711 29.1712C78.9088 28.1629 79.5105 27.3105 79.9767 26.5963C80.443 25.882 80.9062 25.3958 81.18 25.0146L81.6071 24.4624C81.6665 24.3761 81.7579 24.3168 81.8612 24.2977C81.9644 24.2785 82.071 24.3011 82.1576 24.3604C82.2442 24.4197 82.3036 24.5109 82.3227 24.6139C82.3419 24.7169 82.3193 24.8232 82.2599 24.9096C82.2599 24.9096 81.7485 25.7259 80.8852 27.1575C80.4911 27.8988 79.9466 28.7541 79.4473 29.8105C79.1886 30.3327 78.8998 30.8789 78.6261 31.4731L77.7748 33.3429C77.2122 34.6604 76.6227 36.0949 76.0662 37.6375C75.5097 39.1801 74.9712 40.8247 74.4538 42.5384C73.9364 44.2521 73.4431 46.0347 72.9828 47.8564C72.5226 49.6782 72.1225 51.5479 71.7585 53.4236C71.575 54.363 71.3976 55.2993 71.2351 56.2387C71.0727 57.178 70.8952 58.1084 70.7448 59.0388C70.444 60.8935 70.1763 62.7302 69.9416 64.5069C69.5085 68.0662 69.1324 71.3945 68.9038 74.2576C68.6752 77.1207 68.5098 79.5036 68.4346 81.1603C68.3594 82.8169 68.3203 83.7653 68.3203 83.7653C68.267 84.1227 68.0863 84.449 67.8114 84.6841C67.5364 84.9193 67.1856 85.0475 66.8234 85.0453C66.4612 85.0432 66.112 84.9107 65.8399 84.6722C65.5678 84.4337 65.3911 84.1053 65.3422 83.7473" fill="black"/>
<path d="M72.3543 49.7202C71.9029 49.7199 71.4529 49.6695 71.0126 49.5701C70.6817 49.496 70.3864 49.3106 70.1764 49.0449C67.43 45.6026 67.1261 41.1248 67.3578 37.9736C67.5667 35.7531 67.9153 33.5479 68.4016 31.3711C68.6663 30.0716 68.937 28.7301 69.1356 27.4186C69.3732 25.84 69.5206 24.1983 69.665 22.6167C69.9448 19.5465 70.2305 16.3713 71.1691 13.3131C72.8897 7.72498 76.7672 3.18423 81.5441 1.16145C83.3723 0.39383 85.3361 -0.00107041 87.3196 2.17908e-06C91.2452 2.17908e-06 94.87 1.50058 97.2675 4.1326C100.772 7.97708 101.674 14.0784 99.5236 19.6816C97.9202 23.8832 94.7437 27.8477 89.8164 31.7913C89.4073 32.1184 88.9922 32.4425 88.577 32.7636C86.5736 34.3272 84.6845 35.8008 83.361 37.7215C82.6078 38.8944 81.9586 40.1305 81.4207 41.416C80.8799 42.6951 80.2476 43.9338 79.5286 45.1224C78.1238 47.3402 75.5038 49.7082 72.3543 49.7082V49.7202ZM72.1678 46.731C73.8493 46.833 75.7324 45.5546 77.0108 43.5348C77.6525 42.4687 78.2193 41.3597 78.7074 40.2155C79.318 38.7609 80.0579 37.3638 80.9184 36.0409C82.5006 33.742 84.6635 32.0554 86.7571 30.4257C87.1602 30.1076 87.5663 29.7925 87.9604 29.4714C92.5207 25.8099 95.3122 22.3736 96.7411 18.6252C98.4557 14.1234 97.7819 9.10851 95.0655 6.13437C93.2306 4.12359 90.409 2.97115 87.3196 2.97115C85.7408 2.97359 84.1782 3.28987 82.7232 3.90151C78.7435 5.58515 75.5038 9.43264 74.0298 14.1925C73.1785 16.9595 72.9168 19.8406 72.64 22.8958C72.4926 24.5285 72.3392 26.2151 72.0895 27.8777C71.879 29.2643 71.5992 30.6418 71.3315 31.9773C70.8689 34.0292 70.5363 36.1081 70.3358 38.2017C70.1463 40.6687 70.3328 44.117 72.1678 46.743V46.731Z" fill="black"/>
<path d="M66.407 82.2858C66.407 82.2858 66.5905 81.5985 66.9184 80.4011C67.0718 79.8008 67.2794 79.0716 67.5531 78.2192C67.8269 77.3669 68.1066 76.4186 68.4886 75.3922C68.6751 74.882 68.8647 74.3508 69.0632 73.8015L69.743 72.1179C70.1852 70.9534 70.7778 69.774 71.3433 68.5405C71.972 67.3401 72.5797 66.0646 73.3227 64.8431C74.0115 63.5916 74.8267 62.3851 75.6149 61.1727C76.4662 59.9962 77.3084 58.8228 78.2109 57.7123C79.0772 56.5809 80.0398 55.5575 80.9182 54.5401C81.8718 53.5767 82.7592 52.6164 83.6857 51.7911L85.0092 50.5666L86.2907 49.4772C87.0999 48.7629 87.897 48.1777 88.5889 47.6435C89.2808 47.1093 89.8914 46.6531 90.4088 46.2989L92.0181 45.1645C92.1082 45.1004 92.2197 45.0736 92.3292 45.0898C92.4386 45.1061 92.5375 45.1641 92.6049 45.2516C92.6724 45.3391 92.7032 45.4493 92.6908 45.5591C92.6784 45.6688 92.6238 45.7694 92.5385 45.8398H92.5235L91.0194 47.0792C90.5381 47.4664 89.9636 47.9526 89.3319 48.5378C88.7002 49.123 87.9632 49.7383 87.2262 50.4946L86.044 51.638L84.8408 52.9135C83.9925 53.7718 83.1923 54.7622 82.326 55.7466C81.5138 56.779 80.6384 57.8114 79.8593 58.9458C79.0802 60.0803 78.2981 61.2327 77.5431 62.4001C76.8452 63.6006 76.1232 64.8011 75.5066 66.0225C74.8418 67.223 74.3033 68.4625 73.7498 69.6389C73.2535 70.8394 72.7421 71.9978 72.339 73.1263L71.7374 74.7589L71.223 76.3045C70.8801 77.2949 70.6214 78.2132 70.3868 79.0055C70.1521 79.7979 69.9416 80.5271 69.7851 81.1334C69.4843 82.3338 69.2918 83.0241 69.2918 83.0241C69.2456 83.216 69.1615 83.3969 69.0444 83.556C68.9274 83.7151 68.7797 83.8494 68.61 83.951C68.4403 84.0525 68.2521 84.1193 68.0562 84.1474C67.8604 84.1756 67.6609 84.1645 67.4694 84.1148C67.2779 84.0652 67.0983 83.9779 66.941 83.8582C66.7836 83.7385 66.6518 83.5887 66.5532 83.4176C66.4545 83.2465 66.3911 83.0574 66.3665 82.8616C66.3419 82.6657 66.3567 82.4669 66.41 82.2768L66.407 82.2858Z" fill="black"/>
<path d="M78.8128 60.6384C78.6161 60.6384 78.4214 60.5995 78.2399 60.5238C78.0584 60.4482 77.8938 60.3374 77.7556 60.1978C77.6174 60.0582 77.5083 59.8927 77.4347 59.7107C77.3611 59.5287 77.3244 59.334 77.3268 59.1378C77.3268 53.6967 78.9933 48.4807 82.0194 44.4562C85.3284 40.0415 90.2075 37.1603 95.3785 36.5511C95.9096 36.4882 96.444 36.4561 96.9788 36.4551C99.8395 36.4551 102.21 37.4064 103.657 39.1291C105.104 40.8518 105.6 43.2677 105.065 45.6776C104.646 47.5413 103.666 49.339 102.057 51.1667C99.4214 54.1679 95.6943 56.5688 91.2754 58.1504C86.9046 59.705 82.3954 60.2843 78.9421 60.6174C78.894 60.6204 78.8458 60.6204 78.7977 60.6174L78.8128 60.6384ZM96.9638 39.4202C96.5456 39.4216 96.1278 39.4467 95.7124 39.4953C91.4108 40.0024 87.1784 42.5204 84.3868 46.2328C82.0495 49.342 80.6417 53.2826 80.3469 57.4782C83.328 57.133 86.8685 56.5538 90.2737 55.3474C94.2143 53.9458 97.5142 51.821 99.8125 49.204C101.064 47.7784 101.852 46.3739 102.153 45.0264C102.484 43.5258 102.186 42.0012 101.371 41.0318C100.191 39.6513 98.1068 39.4412 96.9698 39.4412L96.9638 39.4202Z" fill="black"/>
<path d="M75.4075 112.844C75.8467 113.144 76.3551 113.489 76.9657 113.327C77.5764 113.165 78.1148 112.579 78.0125 112.045C77.9223 111.586 77.3718 111.358 77.1282 111.256C76.7385 111.101 76.3091 111.075 75.9039 111.184C75.6283 111.257 75.3744 111.394 75.1639 111.586C74.9839 111.71 74.8588 111.898 74.8149 112.111C74.7999 112.417 75.1518 112.66 75.4075 112.844Z" fill="#FFAAAF"/>
<path d="M75.4075 112.844C75.8467 113.144 76.3551 113.489 76.9657 113.327C77.5764 113.165 78.1148 112.579 78.0125 112.045C77.9223 111.586 77.3718 111.358 77.1282 111.256C76.7385 111.101 76.3091 111.075 75.9039 111.184C75.6283 111.257 75.3744 111.394 75.1639 111.586C74.9839 111.71 74.8588 111.898 74.8149 112.111C74.7999 112.417 75.1518 112.66 75.4075 112.844Z" stroke="black" stroke-miterlimit="10"/>
<path d="M78.6534 126.433C78.9391 126.628 79.255 126.853 79.6641 126.733C80.0732 126.613 80.4071 126.25 80.3409 125.901C80.2838 125.601 79.9288 125.457 79.7694 125.391C79.5167 125.291 79.2383 125.274 78.9752 125.343C78.7962 125.392 78.6313 125.483 78.4939 125.607C78.3771 125.687 78.296 125.808 78.2683 125.946C78.2593 126.163 78.4879 126.319 78.6534 126.433Z" fill="#FFAAAF"/>
<path d="M78.6534 126.433C78.9391 126.628 79.255 126.853 79.6641 126.733C80.0732 126.613 80.4071 126.25 80.3409 125.901C80.2838 125.601 79.9288 125.457 79.7694 125.391C79.5167 125.291 79.2383 125.274 78.9752 125.343C78.7962 125.392 78.6313 125.483 78.4939 125.607C78.3771 125.687 78.296 125.808 78.2683 125.946C78.2593 126.163 78.4879 126.319 78.6534 126.433Z" stroke="black" stroke-miterlimit="10"/>
<path d="M9.23492 181.591H15.4046L24.7658 204.379H19.1587L17.3959 199.694H7.33379L5.62217 204.379H0L9.23492 181.591ZM12.3333 186.153L8.72354 195.847H15.943L12.3333 186.153Z" fill="white"/>
<path d="M46.1264 201.678C45.2415 202.761 44.1158 203.624 42.8386 204.199C41.4647 204.762 39.9887 205.035 38.5039 205C34.8721 205 31.9311 203.895 29.681 201.684C27.431 199.473 26.3089 196.57 26.315 192.974C26.315 189.347 27.437 186.446 29.681 184.271C31.9251 182.096 34.9162 181.008 38.6543 181.006C41.909 181.006 44.5642 181.689 46.6198 183.056C47.6013 183.677 48.4371 184.502 49.0699 185.474C49.7027 186.447 50.1177 187.545 50.2867 188.692H44.839C44.549 187.561 43.8236 186.591 42.8205 185.991C41.8058 185.373 40.4812 185.063 38.8468 185.063C36.6729 185.063 34.9683 185.764 33.733 187.164C32.4976 188.565 31.878 190.496 31.874 192.956C31.874 195.429 32.5197 197.367 33.8112 198.77C35.1027 200.172 36.8775 200.873 39.1356 200.871C40.8261 200.871 42.2419 200.432 43.383 199.556C44.5238 198.671 45.2782 197.381 45.4887 195.955H39.6048V192.053H50.3558V204.379H46.7792L46.1264 201.678Z" fill="white"/>
<path d="M55.4849 204.379V181.591H68.0708C70.9005 181.591 72.9981 182.122 74.3638 183.185C75.7295 184.247 76.4113 185.871 76.4093 188.056C76.4539 189.291 76.1054 190.508 75.4136 191.534C74.7124 192.485 73.6972 193.159 72.5469 193.437C73.676 193.789 74.4781 194.325 74.9534 195.045C75.4287 195.766 75.7024 196.889 75.7746 198.416L75.8799 201.117V201.21C75.916 202.568 76.2509 203.392 76.8846 203.683V204.379H71.0338C70.8244 204.005 70.678 203.6 70.6007 203.178C70.4913 202.625 70.4289 202.064 70.4142 201.501L70.345 199.1C70.2848 197.685 69.984 196.731 69.4425 196.237C68.8981 195.742 67.9114 195.495 66.4916 195.495H60.8273V204.379H55.4849ZM60.8273 191.561H67.1022C68.4659 191.561 69.4686 191.319 70.1103 190.835C70.7511 190.351 71.0699 189.586 71.0699 188.548C71.0699 187.547 70.7591 186.797 70.1374 186.297C69.5157 185.797 68.5872 185.542 67.3519 185.532H60.8273V191.561Z" fill="white"/>
<path d="M81.4326 204.379V181.591H86.772V204.379H81.4326Z" fill="white"/>
<path d="M92.3491 204.379V181.591H111.207V185.55H97.6103V190.405H110.037V194.307H97.6103V200.177H111.836V204.379H92.3491Z" fill="white"/>
<path d="M113.051 204.379L121.227 192.74L113.066 181.591H119.236L124.536 189.556L129.806 181.591H136.009L127.848 192.695L136 204.379H129.834L124.536 196.483L119.221 204.379H113.051Z" fill="white"/>
</g>
<defs>
<clipPath id="clip0_567_901">
<rect width="136" height="205" fill="white"/>
</clipPath>
</defs>
</svg>
